<?xml version="1.0" encoding="UTF-8"?><svg id="a" xmlns="http://www.w3.org/2000/svg" xmlns:xlink="http://www.w3.org/1999/xlink" viewBox="0 0 1109.61 4000.95"><defs><clipPath id="b"><polygon points="18.98 17.98 35.97 17.2 35.97 18.77 18.98 17.98" style="fill:none;"/></clipPath><clipPath id="c"><polygon points="18.97 18.16 35.83 20.33 35.56 21.88 18.97 18.16" style="fill:none;"/></clipPath><clipPath id="d"><polygon points="18.92 18.32 35.15 23.4 34.61 24.87 18.92 18.32" style="fill:none;"/></clipPath><clipPath id="e"><polygon points="18.85 18.48 33.95 26.29 33.16 27.65 18.85 18.48" style="fill:none;"/></clipPath><clipPath id="f"><polygon points="18.75 18.63 32.26 28.94 31.25 30.14 18.75 18.63" style="fill:none;"/></clipPath><clipPath id="g"><polygon points="18.63 18.75 30.14 31.25 28.94 32.26 18.63 18.75" style="fill:none;"/></clipPath><clipPath id="h"><polygon points="18.48 18.85 27.65 33.16 26.29 33.95 18.48 18.85" style="fill:none;"/></clipPath><clipPath id="i"><polygon points="18.32 18.92 24.87 34.61 23.4 35.15 18.32 18.92" style="fill:none;"/></clipPath><clipPath id="j"><polygon points="18.16 18.97 21.88 35.56 20.33 35.83 18.16 18.97" style="fill:none;"/></clipPath><clipPath id="k"><polygon points="17.98 18.98 18.77 35.97 17.2 35.97 17.98 18.98" style="fill:none;"/></clipPath><clipPath id="l"><polygon points="17.81 18.97 15.63 35.83 14.09 35.56 17.81 18.97" style="fill:none;"/></clipPath><clipPath id="m"><polygon points="17.64 18.92 12.57 35.15 11.09 34.61 17.64 18.92" style="fill:none;"/></clipPath><clipPath id="n"><polygon points="17.48 18.85 9.67 33.95 8.31 33.16 17.48 18.85" style="fill:none;"/></clipPath><clipPath id="o"><polygon points="17.34 18.75 7.02 32.26 5.82 31.25 17.34 18.75" style="fill:none;"/></clipPath><clipPath id="p"><polygon points="17.22 18.63 4.71 30.14 3.7 28.94 17.22 18.63" style="fill:none;"/></clipPath><clipPath id="q"><polygon points="17.12 18.48 2.8 27.65 2.02 26.29 17.12 18.48" style="fill:none;"/></clipPath><clipPath id="r"><polygon points="17.04 18.32 1.35 24.87 .82 23.4 17.04 18.32" style="fill:none;"/></clipPath><clipPath id="s"><polygon points="17 18.16 .41 21.88 .14 20.33 17 18.16" style="fill:none;"/></clipPath><clipPath id="t"><polygon points="16.98 17.98 0 18.77 0 17.2 16.98 17.98" style="fill:none;"/></clipPath><clipPath id="u"><polygon points="17 17.81 .14 15.63 .41 14.09 17 17.81" style="fill:none;"/></clipPath><clipPath id="v"><polygon points="17.04 17.64 .82 12.57 1.35 11.09 17.04 17.64" style="fill:none;"/></clipPath><clipPath id="w"><polygon points="17.12 17.48 2.02 9.67 2.8 8.31 17.12 17.48" style="fill:none;"/></clipPath><clipPath id="x"><polygon points="17.22 17.34 3.7 7.03 4.71 5.82 17.22 17.34" style="fill:none;"/></clipPath><clipPath id="y"><polygon points="17.34 17.22 5.82 4.71 7.02 3.7 17.34 17.22" style="fill:none;"/></clipPath><clipPath id="z"><polygon points="17.48 17.12 8.31 2.8 9.67 2.02 17.48 17.12" style="fill:none;"/></clipPath><clipPath id="aa"><polygon points="17.64 17.04 11.09 1.35 12.57 .82 17.64 17.04" style="fill:none;"/></clipPath><clipPath id="ab"><polygon points="17.81 17 14.09 .41 15.63 .14 17.81 17" style="fill:none;"/></clipPath><clipPath id="ac"><polygon points="17.98 16.98 17.2 0 18.77 0 17.98 16.98" style="fill:none;"/></clipPath><clipPath id="ad"><polygon points="18.16 17 20.33 .14 21.88 .41 18.16 17" style="fill:none;"/></clipPath><clipPath id="ae"><polygon points="18.32 17.04 23.4 .82 24.87 1.35 18.32 17.04" style="fill:none;"/></clipPath><clipPath id="af"><polygon points="18.48 17.12 26.29 2.02 27.65 2.8 18.48 17.12" style="fill:none;"/></clipPath><clipPath id="ag"><polygon points="18.63 17.22 28.94 3.7 30.14 4.71 18.63 17.22" style="fill:none;"/></clipPath><clipPath id="ah"><polygon points="18.75 17.34 31.25 5.82 32.26 7.03 18.75 17.34" style="fill:none;"/></clipPath><clipPath id="ai"><polygon points="18.85 17.48 33.16 8.31 33.95 9.67 18.85 17.48" style="fill:none;"/></clipPath><clipPath id="aj"><polygon points="18.92 17.64 34.61 11.09 35.15 12.57 18.92 17.64" style="fill:none;"/></clipPath><clipPath id="ak"><polygon points="18.97 17.81 35.56 14.09 35.83 15.63 18.97 17.81" style="fill:none;"/></clipPath><clipPath id="al"><polygon points="1092.63 3982.97 1109.61 3982.18 1109.61 3983.75 1092.63 3982.97" style="fill:none;"/></clipPath><clipPath id="am"><polygon points="1092.61 3983.14 1109.47 3985.32 1109.2 3986.86 1092.61 3983.14" style="fill:none;"/></clipPath><clipPath id="an"><polygon points="1092.57 3983.31 1108.8 3988.38 1108.26 3989.86 1092.57 3983.31" style="fill:none;"/></clipPath><clipPath id="ao"><polygon points="1092.49 3983.47 1107.6 3991.28 1106.81 3992.64 1092.49 3983.47" style="fill:none;"/></clipPath><clipPath id="ap"><polygon points="1092.39 3983.61 1105.91 3993.93 1104.9 3995.13 1092.39 3983.61" style="fill:none;"/></clipPath><clipPath id="aq"><polygon points="1092.27 3983.73 1103.79 3996.24 1102.59 3997.25 1092.27 3983.73" style="fill:none;"/></clipPath><clipPath id="ar"><polygon points="1092.13 3983.83 1101.3 3998.15 1099.94 3998.93 1092.13 3983.83" style="fill:none;"/></clipPath><clipPath id="as"><polygon points="1091.97 3983.91 1098.52 3999.6 1097.04 4000.13 1091.97 3983.91" style="fill:none;"/></clipPath><clipPath id="at"><polygon points="1091.8 3983.95 1095.52 4000.54 1093.98 4000.81 1091.8 3983.95" style="fill:none;"/></clipPath><clipPath id="au"><polygon points="1091.63 3983.97 1092.41 4000.95 1090.84 4000.95 1091.63 3983.97" style="fill:none;"/></clipPath><clipPath id="av"><polygon points="1091.46 3983.95 1089.28 4000.81 1087.73 4000.54 1091.46 3983.95" style="fill:none;"/></clipPath><clipPath id="aw"><polygon points="1091.29 3983.91 1086.22 4000.13 1084.74 3999.6 1091.29 3983.91" style="fill:none;"/></clipPath><clipPath id="ax"><polygon points="1091.13 3983.83 1083.32 3998.93 1081.96 3998.15 1091.13 3983.83" style="fill:none;"/></clipPath><clipPath id="ay"><polygon points="1090.99 3983.73 1080.67 3997.25 1079.47 3996.24 1090.99 3983.73" style="fill:none;"/></clipPath><clipPath id="az"><polygon points="1090.86 3983.61 1078.36 3995.13 1077.35 3993.93 1090.86 3983.61" style="fill:none;"/></clipPath><clipPath id="ba"><polygon points="1090.76 3983.47 1076.45 3992.64 1075.66 3991.28 1090.76 3983.47" style="fill:none;"/></clipPath><clipPath id="bb"><polygon points="1090.69 3983.31 1075 3989.86 1074.46 3988.38 1090.69 3983.31" style="fill:none;"/></clipPath><clipPath id="bc"><polygon points="1090.64 3983.14 1074.06 3986.86 1073.78 3985.32 1090.64 3983.14" style="fill:none;"/></clipPath><clipPath id="bd"><polygon points="1090.63 3982.97 1073.65 3983.75 1073.65 3982.18 1090.63 3982.97" style="fill:none;"/></clipPath><clipPath id="be"><polygon points="1090.64 3982.79 1073.78 3980.62 1074.06 3979.07 1090.64 3982.79" style="fill:none;"/></clipPath><clipPath id="bf"><polygon points="1090.69 3982.63 1074.46 3977.55 1075 3976.08 1090.69 3982.63" style="fill:none;"/></clipPath><clipPath id="bg"><polygon points="1090.76 3982.47 1075.66 3974.66 1076.45 3973.3 1090.76 3982.47" style="fill:none;"/></clipPath><clipPath id="bh"><polygon points="1090.86 3982.32 1077.35 3972.01 1078.36 3970.81 1090.86 3982.32" style="fill:none;"/></clipPath><clipPath id="bi"><polygon points="1090.99 3982.2 1079.47 3969.7 1080.67 3968.69 1090.99 3982.2" style="fill:none;"/></clipPath><clipPath id="bj"><polygon points="1091.13 3982.1 1081.96 3967.79 1083.32 3967 1091.13 3982.1" style="fill:none;"/></clipPath><clipPath id="bk"><polygon points="1091.29 3982.03 1084.74 3966.34 1086.22 3965.8 1091.29 3982.03" style="fill:none;"/></clipPath><clipPath id="bl"><polygon points="1091.46 3981.98 1087.73 3965.39 1089.28 3965.12 1091.46 3981.98" style="fill:none;"/></clipPath><clipPath id="bm"><polygon points="1091.63 3981.97 1090.84 3964.98 1092.41 3964.98 1091.63 3981.97" style="fill:none;"/></clipPath><clipPath id="bn"><polygon points="1091.8 3981.98 1093.98 3965.12 1095.52 3965.39 1091.8 3981.98" style="fill:none;"/></clipPath><clipPath id="bo"><polygon points="1091.97 3982.03 1097.04 3965.8 1098.52 3966.34 1091.97 3982.03" style="fill:none;"/></clipPath><clipPath id="bp"><polygon points="1092.13 3982.1 1099.94 3967 1101.3 3967.79 1092.13 3982.1" style="fill:none;"/></clipPath><clipPath id="bq"><polygon points="1092.27 3982.2 1102.59 3968.69 1103.79 3969.7 1092.27 3982.2" style="fill:none;"/></clipPath><clipPath id="br"><polygon points="1092.39 3982.32 1104.9 3970.81 1105.91 3972.01 1092.39 3982.32" style="fill:none;"/></clipPath><clipPath id="bs"><polygon points="1092.49 3982.47 1106.81 3973.3 1107.6 3974.66 1092.49 3982.47" style="fill:none;"/></clipPath><clipPath id="bt"><polygon points="1092.57 3982.63 1108.26 3976.08 1108.8 3977.55 1092.57 3982.63" style="fill:none;"/></clipPath><clipPath id="bu"><polygon points="1092.61 3982.79 1109.2 3979.07 1109.47 3980.62 1092.61 3982.79" style="fill:none;"/></clipPath></defs><path d="M1072.13,3969.47v27M1072.13,31.48V4.48M37.48,3969.47v27M37.48,31.48V4.48M1078.13,3963.47h27M31.48,3963.47H4.48M1078.13,37.48h27M31.48,37.48H4.48" style="fill:none; stroke:#fff; stroke-miterlimit:10; stroke-width:1.25px;"/><path d="M1072.13,3969.47v27M1072.13,31.48V4.48M37.48,3969.47v27M37.48,31.48V4.48M1078.13,3963.47h27M31.48,3963.47H4.48M1078.13,37.48h27M31.48,37.48H4.48" style="fill:none; stroke:#000; stroke-miterlimit:10; stroke-width:.25px;"/><circle cx="55.48" cy="17.98" r="6" style="fill:none; stroke:#fff; stroke-miterlimit:10; stroke-width:1.25px;"/><line x1="46.48" y1="17.98" x2="64.48" y2="17.98" style="fill:none; stroke:#fff; stroke-miterlimit:10; stroke-width:1.25px;"/><line x1="55.48" y1="8.98" x2="55.48" y2="26.98" style="fill:none; stroke:#fff; stroke-miterlimit:10; stroke-width:1.25px;"/><circle cx="55.48" cy="17.98" r="3" style="fill:none; stroke:#fff; stroke-miterlimit:10; stroke-width:1.25px;"/><circle cx="55.48" cy="17.98" r="6" style="fill:none; stroke:#000; stroke-miterlimit:10; stroke-width:.25px;"/><line x1="46.48" y1="17.98" x2="64.48" y2="17.98" style="fill:none; stroke:#000; stroke-miterlimit:10; stroke-width:.25px;"/><line x1="55.48" y1="8.98" x2="55.48" y2="26.98" style="fill:none; stroke:#000; stroke-miterlimit:10; stroke-width:.25px;"/><path d="M58.48,17.98c0,1.66-1.34,3-3,3s-3-1.34-3-3,1.34-3,3-3,3,1.34,3,3"/><line x1="52.48" y1="17.98" x2="58.48" y2="17.98" style="fill:none; stroke:#fff; stroke-miterlimit:10; stroke-width:.25px;"/><line x1="55.48" y1="14.98" x2="55.48" y2="20.98" style="fill:none; stroke:#fff; stroke-miterlimit:10; stroke-width:.25px;"/><circle cx="1054.13" cy="17.98" r="6" style="fill:none; stroke:#fff; stroke-miterlimit:10; stroke-width:1.25px;"/><line x1="1045.13" y1="17.98" x2="1063.13" y2="17.98" style="fill:none; stroke:#fff; stroke-miterlimit:10; stroke-width:1.25px;"/><line x1="1054.13" y1="8.98" x2="1054.13" y2="26.98" style="fill:none; stroke:#fff; stroke-miterlimit:10; stroke-width:1.25px;"/><circle cx="1054.13" cy="17.98" r="3" style="fill:none; stroke:#fff; stroke-miterlimit:10; stroke-width:1.25px;"/><circle cx="1054.13" cy="17.98" r="6" style="fill:none; stroke:#000; stroke-miterlimit:10; stroke-width:.25px;"/><line x1="1045.13" y1="17.98" x2="1063.13" y2="17.98" style="fill:none; stroke:#000; stroke-miterlimit:10; stroke-width:.25px;"/><line x1="1054.13" y1="8.98" x2="1054.13" y2="26.98" style="fill:none; stroke:#000; stroke-miterlimit:10; stroke-width:.25px;"/><path d="M1057.13,17.98c0,1.66-1.34,3-3,3s-3-1.34-3-3,1.34-3,3-3,3,1.34,3,3"/><line x1="1051.13" y1="17.98" x2="1057.13" y2="17.98" style="fill:none; stroke:#fff; stroke-miterlimit:10; stroke-width:.25px;"/><line x1="1054.13" y1="14.98" x2="1054.13" y2="20.98" style="fill:none; stroke:#fff; stroke-miterlimit:10; stroke-width:.25px;"/><circle cx="55.48" cy="3982.97" r="6" style="fill:none; stroke:#fff; stroke-miterlimit:10; stroke-width:1.25px;"/><line x1="46.48" y1="3982.97" x2="64.48" y2="3982.97" style="fill:none; stroke:#fff; stroke-miterlimit:10; stroke-width:1.25px;"/><line x1="55.48" y1="3973.97" x2="55.48" y2="3991.97" style="fill:none; stroke:#fff; stroke-miterlimit:10; stroke-width:1.25px;"/><circle cx="55.48" cy="3982.97" r="3" style="fill:none; stroke:#fff; stroke-miterlimit:10; stroke-width:1.25px;"/><circle cx="55.48" cy="3982.97" r="6" style="fill:none; stroke:#000; stroke-miterlimit:10; stroke-width:.25px;"/><line x1="46.48" y1="3982.97" x2="64.48" y2="3982.97" style="fill:none; stroke:#000; stroke-miterlimit:10; stroke-width:.25px;"/><line x1="55.48" y1="3973.97" x2="55.48" y2="3991.97" style="fill:none; stroke:#000; stroke-miterlimit:10; stroke-width:.25px;"/><path d="M58.48,3982.97c0,1.66-1.34,3-3,3s-3-1.34-3-3,1.34-3,3-3,3,1.34,3,3"/><line x1="52.48" y1="3982.97" x2="58.48" y2="3982.97" style="fill:none; stroke:#fff; stroke-miterlimit:10; stroke-width:.25px;"/><line x1="55.48" y1="3979.97" x2="55.48" y2="3985.97" style="fill:none; stroke:#fff; stroke-miterlimit:10; stroke-width:.25px;"/><circle cx="1054.13" cy="3982.97" r="6" style="fill:none; stroke:#fff; stroke-miterlimit:10; stroke-width:1.25px;"/><line x1="1045.13" y1="3982.97" x2="1063.13" y2="3982.97" style="fill:none; stroke:#fff; stroke-miterlimit:10; stroke-width:1.25px;"/><line x1="1054.13" y1="3973.97" x2="1054.13" y2="3991.97" style="fill:none; stroke:#fff; stroke-miterlimit:10; stroke-width:1.25px;"/><circle cx="1054.13" cy="3982.97" r="3" style="fill:none; stroke:#fff; stroke-miterlimit:10; stroke-width:1.25px;"/><circle cx="1054.13" cy="3982.97" r="6" style="fill:none; stroke:#000; stroke-miterlimit:10; stroke-width:.25px;"/><line x1="1045.13" y1="3982.97" x2="1063.13" y2="3982.97" style="fill:none; stroke:#000; stroke-miterlimit:10; stroke-width:.25px;"/><line x1="1054.13" y1="3973.97" x2="1054.13" y2="3991.97" style="fill:none; stroke:#000; stroke-miterlimit:10; stroke-width:.25px;"/><path d="M1057.13,3982.97c0,1.66-1.34,3-3,3s-3-1.34-3-3,1.34-3,3-3,3,1.34,3,3"/><line x1="1051.13" y1="3982.97" x2="1057.13" y2="3982.97" style="fill:none; stroke:#fff; stroke-miterlimit:10; stroke-width:.25px;"/><line x1="1054.13" y1="3979.97" x2="1054.13" y2="3985.97" style="fill:none; stroke:#fff; stroke-miterlimit:10; stroke-width:.25px;"/><circle cx="17.98" cy="55.48" r="6" style="fill:none; stroke:#fff; stroke-miterlimit:10; stroke-width:1.25px;"/><line x1="8.98" y1="55.48" x2="26.98" y2="55.48" style="fill:none; stroke:#fff; stroke-miterlimit:10; stroke-width:1.25px;"/><line x1="17.98" y1="46.48" x2="17.98" y2="64.48" style="fill:none; stroke:#fff; stroke-miterlimit:10; stroke-width:1.25px;"/><circle cx="17.98" cy="55.48" r="3" style="fill:none; stroke:#fff; stroke-miterlimit:10; stroke-width:1.25px;"/><circle cx="17.98" cy="55.48" r="6" style="fill:none; stroke:#000; stroke-miterlimit:10; stroke-width:.25px;"/><line x1="8.98" y1="55.48" x2="26.98" y2="55.48" style="fill:none; stroke:#000; stroke-miterlimit:10; stroke-width:.25px;"/><line x1="17.98" y1="46.48" x2="17.98" y2="64.48" style="fill:none; stroke:#000; stroke-miterlimit:10; stroke-width:.25px;"/><path d="M20.98,55.48c0,1.66-1.34,3-3,3s-3-1.34-3-3,1.34-3,3-3,3,1.34,3,3"/><line x1="14.98" y1="55.48" x2="20.98" y2="55.48" style="fill:none; stroke:#fff; stroke-miterlimit:10; stroke-width:.25px;"/><line x1="17.98" y1="52.48" x2="17.98" y2="58.48" style="fill:none; stroke:#fff; stroke-miterlimit:10; stroke-width:.25px;"/><circle cx="17.98" cy="3945.47" r="6" style="fill:none; stroke:#fff; stroke-miterlimit:10; stroke-width:1.25px;"/><line x1="8.98" y1="3945.47" x2="26.98" y2="3945.47" style="fill:none; stroke:#fff; stroke-miterlimit:10; stroke-width:1.25px;"/><line x1="17.98" y1="3936.47" x2="17.98" y2="3954.47" style="fill:none; stroke:#fff; stroke-miterlimit:10; stroke-width:1.25px;"/><circle cx="17.98" cy="3945.47" r="3" style="fill:none; stroke:#fff; stroke-miterlimit:10; stroke-width:1.25px;"/><circle cx="17.98" cy="3945.47" r="6" style="fill:none; stroke:#000; stroke-miterlimit:10; stroke-width:.25px;"/><line x1="8.98" y1="3945.47" x2="26.98" y2="3945.47" style="fill:none; stroke:#000; stroke-miterlimit:10; stroke-width:.25px;"/><line x1="17.98" y1="3936.47" x2="17.98" y2="3954.47" style="fill:none; stroke:#000; stroke-miterlimit:10; stroke-width:.25px;"/><path d="M20.98,3945.47c0,1.66-1.34,3-3,3s-3-1.34-3-3,1.34-3,3-3,3,1.34,3,3"/><line x1="14.98" y1="3945.47" x2="20.98" y2="3945.47" style="fill:none; stroke:#fff; stroke-miterlimit:10; stroke-width:.25px;"/><line x1="17.98" y1="3942.47" x2="17.98" y2="3948.47" style="fill:none; stroke:#fff; stroke-miterlimit:10; stroke-width:.25px;"/><circle cx="1091.63" cy="55.48" r="6" style="fill:none; stroke:#fff; stroke-miterlimit:10; stroke-width:1.25px;"/><line x1="1082.63" y1="55.48" x2="1100.63" y2="55.48" style="fill:none; stroke:#fff; stroke-miterlimit:10; stroke-width:1.25px;"/><line x1="1091.63" y1="46.48" x2="1091.63" y2="64.48" style="fill:none; stroke:#fff; stroke-miterlimit:10; stroke-width:1.25px;"/><circle cx="1091.63" cy="55.48" r="3" style="fill:none; stroke:#fff; stroke-miterlimit:10; stroke-width:1.25px;"/><circle cx="1091.63" cy="55.48" r="6" style="fill:none; stroke:#000; stroke-miterlimit:10; stroke-width:.25px;"/><line x1="1082.63" y1="55.48" x2="1100.63" y2="55.48" style="fill:none; stroke:#000; stroke-miterlimit:10; stroke-width:.25px;"/><line x1="1091.63" y1="46.48" x2="1091.63" y2="64.48" style="fill:none; stroke:#000; stroke-miterlimit:10; stroke-width:.25px;"/><path d="M1094.63,55.48c0,1.66-1.34,3-3,3s-3-1.34-3-3,1.34-3,3-3,3,1.34,3,3"/><line x1="1088.63" y1="55.48" x2="1094.63" y2="55.48" style="fill:none; stroke:#fff; stroke-miterlimit:10; stroke-width:.25px;"/><line x1="1091.63" y1="52.48" x2="1091.63" y2="58.48" style="fill:none; stroke:#fff; stroke-miterlimit:10; stroke-width:.25px;"/><circle cx="1091.63" cy="3945.47" r="6" style="fill:none; stroke:#fff; stroke-miterlimit:10; stroke-width:1.25px;"/><line x1="1082.63" y1="3945.47" x2="1100.63" y2="3945.47" style="fill:none; stroke:#fff; stroke-miterlimit:10; stroke-width:1.25px;"/><line x1="1091.63" y1="3936.47" x2="1091.63" y2="3954.47" style="fill:none; stroke:#fff; stroke-miterlimit:10; stroke-width:1.25px;"/><circle cx="1091.63" cy="3945.47" r="3" style="fill:none; stroke:#fff; stroke-miterlimit:10; stroke-width:1.25px;"/><circle cx="1091.63" cy="3945.47" r="6" style="fill:none; stroke:#000; stroke-miterlimit:10; stroke-width:.25px;"/><line x1="1082.63" y1="3945.47" x2="1100.63" y2="3945.47" style="fill:none; stroke:#000; stroke-miterlimit:10; stroke-width:.25px;"/><line x1="1091.63" y1="3936.47" x2="1091.63" y2="3954.47" style="fill:none; stroke:#000; stroke-miterlimit:10; stroke-width:.25px;"/><path d="M1094.63,3945.47c0,1.66-1.34,3-3,3s-3-1.34-3-3,1.34-3,3-3,3,1.34,3,3"/><line x1="1088.63" y1="3945.47" x2="1094.63" y2="3945.47" style="fill:none; stroke:#fff; stroke-miterlimit:10; stroke-width:.25px;"/><line x1="1091.63" y1="3942.47" x2="1091.63" y2="3948.47" style="fill:none; stroke:#fff; stroke-miterlimit:10; stroke-width:.25px;"/><rect x="10.48" y="1940.48" width="15" height="15" style="fill:#00aeef;"/><rect x="10.48" y="1940.47" width="15" height="15" style="fill:none; stroke:#000; stroke-miterlimit:10; stroke-width:.5px;"/><path d="M18.36,1947.22s.03-.05.05-.06c.02-.01.05-.02.09-.02.04,0,.07.01.09.03s.03.06.03.13c0,.11,0,.22,0,.31,0,.1,0,.14,0,.13,0,.05,0,.09-.03.11-.02.02-.05.03-.1.03-.08,0-.12-.05-.15-.16,0-.03-.01-.06-.02-.07-.02-.09-.07-.16-.16-.21s-.18-.08-.29-.08c-.2,0-.36.07-.49.22-.12.15-.18.35-.18.59s.06.45.19.59.29.22.49.22c.07,0,.13,0,.2-.03.07-.02.14-.05.2-.08.03-.02.07-.04.13-.08.05-.04.09-.06.11-.06.04,0,.07.01.09.03s.04.05.04.09-.01.07-.04.1c-.03.03-.08.07-.15.12-.1.06-.19.11-.29.14s-.2.04-.31.04c-.28,0-.51-.1-.7-.3-.18-.2-.27-.45-.27-.76s.09-.56.28-.76c.19-.2.42-.3.7-.3.08,0,.15,0,.23.03.08.02.16.05.25.08Z"/><rect x="10.48" y="1955.48" width="15" height="15" style="fill:#ec008c;"/><rect x="10.48" y="1955.47" width="15" height="15" style="fill:none; stroke:#000; stroke-miterlimit:10; stroke-width:.5px;"/><path d="M17.82,1963.35l.37-1.07s.04-.07.07-.09.07-.03.12-.03h.28s.06,0,.08.03c.02.02.03.05.03.09,0,.04-.01.07-.04.09s-.07.02-.13.02h-.03l.05,1.55h.04c.07,0,.12,0,.15.02.03.02.04.05.04.09,0,.04-.01.07-.03.09s-.05.03-.09.03h-.48c-.07,0-.11,0-.14-.03-.02-.02-.04-.05-.04-.1s.01-.08.04-.09c.03-.02.08-.03.16-.03h.07l-.04-1.47-.34.98s-.04.08-.06.1-.06.03-.11.03-.08,0-.11-.03c-.02-.02-.05-.05-.06-.1l-.34-.98-.03,1.47h.11c.07,0,.11,0,.14.03.03.02.04.05.04.09,0,.05-.01.08-.04.1s-.07.03-.14.03h-.48s-.07-.01-.09-.03-.03-.05-.03-.09c0-.05.01-.08.04-.09s.07-.02.15-.02h.04l.05-1.55h-.03c-.06,0-.11,0-.13-.02s-.04-.05-.04-.09c0-.04,0-.07.03-.09s.05-.03.08-.03h.28c.05,0,.09,0,.12.03s.05.05.06.09l.37,1.07Z"/><rect x="10.48" y="1970.48" width="15" height="15" style="fill:#fff200;"/><rect x="10.48" y="1970.47" width="15" height="15" style="fill:none; stroke:#000; stroke-miterlimit:10; stroke-width:.5px;"/><path d="M18.19,1978.95c.09,0,.14,0,.17.02s.04.05.04.09-.01.08-.04.1-.07.03-.15.03h-.81c-.07,0-.12,0-.15-.03-.02-.02-.04-.05-.04-.1s.01-.08.04-.09.08-.02.17-.02h.25v-.57l-.57-.97h-.03c-.07,0-.12,0-.14-.03s-.04-.05-.04-.1c0-.04.01-.07.03-.09s.05-.03.1-.03h.47c.07,0,.11,0,.14.03s.04.05.04.1-.01.08-.04.1-.08.03-.15.03h-.06l.41.74.43-.74h-.07c-.06,0-.1,0-.13-.03s-.04-.05-.04-.1c0-.05.01-.08.03-.1.02-.02.07-.03.16-.03h.31c.09,0,.14,0,.17.03s.04.05.04.1-.01.08-.04.1-.07.03-.14.03h-.03l-.58,1v.54h.25Z"/><rect x="10.48" y="1985.48" width="15" height="15" style="fill:#2e3192;"/><rect x="10.48" y="1985.47" width="15" height="15" style="fill:none; stroke:#000; stroke-miterlimit:10; stroke-width:.5px;"/><path d="M17.14,1992.22s.03-.05.05-.06c.02-.01.05-.02.09-.02.04,0,.07.01.09.03s.03.06.03.13c0,.11,0,.22,0,.31,0,.1,0,.14,0,.13,0,.05,0,.09-.03.11-.02.02-.05.03-.1.03-.08,0-.12-.05-.15-.16,0-.03-.01-.06-.02-.07-.02-.09-.07-.16-.16-.21s-.18-.08-.29-.08c-.2,0-.36.07-.49.22-.12.15-.18.35-.18.59s.06.45.19.59.29.22.49.22c.07,0,.13,0,.2-.03.07-.02.14-.05.2-.08.03-.02.07-.04.13-.08.05-.04.09-.06.11-.06.04,0,.07.01.09.03s.04.05.04.09-.01.07-.04.1c-.03.03-.08.07-.15.12-.1.06-.19.11-.29.14s-.2.04-.31.04c-.28,0-.51-.1-.7-.3-.18-.2-.27-.45-.27-.76s.09-.56.28-.76c.19-.2.42-.3.7-.3.08,0,.15,0,.23.03.08.02.16.05.25.08Z"/><path d="M18.71,1993.35l.37-1.07s.04-.07.07-.09.07-.03.12-.03h.28s.06,0,.08.03c.02.02.03.05.03.09,0,.04-.01.07-.04.09s-.07.02-.13.02h-.03l.05,1.55h.04c.07,0,.12,0,.15.02.03.02.04.05.04.09,0,.04-.01.07-.03.09s-.05.03-.09.03h-.48c-.07,0-.11,0-.14-.03-.02-.02-.04-.05-.04-.1s.01-.08.04-.09c.03-.02.08-.03.16-.03h.07l-.04-1.47-.34.98s-.04.08-.06.1-.06.03-.11.03-.08,0-.11-.03c-.02-.02-.05-.05-.06-.1l-.34-.98-.03,1.47h.11c.07,0,.11,0,.14.03.03.02.04.05.04.09,0,.05-.01.08-.04.1s-.07.03-.14.03h-.48s-.07-.01-.09-.03-.03-.05-.03-.09c0-.05.01-.08.04-.09s.07-.02.15-.02h.04l.05-1.55h-.03c-.06,0-.11,0-.13-.02s-.04-.05-.04-.09c0-.04,0-.07.03-.09s.05-.03.08-.03h.28c.05,0,.09,0,.12.03s.05.05.06.09l.37,1.07Z"/><rect x="10.48" y="2000.48" width="15" height="15" style="fill:#ed1c24;"/><rect x="10.48" y="2000.47" width="15" height="15" style="fill:none; stroke:#000; stroke-miterlimit:10; stroke-width:.5px;"/><path d="M16.61,2008.35l.37-1.07s.04-.07.07-.09c.03-.02.07-.03.12-.03h.28s.06.01.08.03c.02.02.03.05.03.09,0,.04-.01.07-.04.09s-.07.03-.13.03h-.03l.05,1.55h.04c.07,0,.12,0,.15.03.03.02.04.05.04.09,0,.04-.01.07-.03.09-.02.02-.05.03-.09.03h-.48c-.07,0-.11,0-.14-.03-.02-.02-.04-.05-.04-.1s.01-.08.04-.09c.03-.02.08-.03.16-.03h.07l-.04-1.47-.34.98s-.04.08-.06.1-.06.03-.11.03-.08,0-.11-.03-.05-.05-.06-.1l-.34-.98-.03,1.47h.11c.07,0,.11,0,.14.03.03.02.04.05.04.09,0,.05-.01.08-.04.1s-.07.03-.14.03h-.48s-.07,0-.09-.03c-.02-.02-.03-.05-.03-.09,0-.05.01-.08.04-.09s.07-.03.15-.03h.04l.05-1.55h-.03c-.06,0-.11,0-.13-.03s-.04-.05-.04-.09c0-.04,0-.07.03-.09.02-.02.05-.03.08-.03h.28c.05,0,.09,0,.12.03.03.02.05.05.06.09l.37,1.07Z"/><path d="M19.08,2008.95c.09,0,.14,0,.17.03s.04.05.04.09-.01.08-.04.1-.07.03-.15.03h-.81c-.07,0-.12,0-.15-.03-.02-.02-.04-.05-.04-.1s.01-.08.04-.09.08-.03.17-.03h.25v-.57l-.57-.97h-.03c-.07,0-.12,0-.14-.03-.02-.02-.04-.05-.04-.1,0-.04.01-.07.03-.09.02-.02.05-.03.1-.03h.47c.07,0,.11,0,.14.03.02.02.04.05.04.1s-.01.08-.04.1c-.03.02-.08.03-.15.03h-.06l.41.74.43-.74h-.07c-.06,0-.1,0-.13-.03-.02-.02-.04-.05-.04-.1s.01-.08.03-.1c.02-.02.07-.03.16-.03h.31c.09,0,.14,0,.17.03s.04.05.04.1-.01.08-.04.1c-.02.02-.07.03-.14.03h-.03l-.58,1v.54h.25Z"/><rect x="10.48" y="2015.48" width="15" height="15" style="fill:#00a651;"/><rect x="10.48" y="2015.47" width="15" height="15" style="fill:none; stroke:#000; stroke-miterlimit:10; stroke-width:.5px;"/><path d="M17.14,2022.22s.03-.05.05-.06.05-.02.09-.02c.04,0,.07.01.09.03s.03.06.03.13c0,.11,0,.21,0,.31,0,.1,0,.14,0,.13,0,.05,0,.09-.03.11-.02.02-.05.03-.1.03-.08,0-.12-.05-.15-.16,0-.03-.01-.06-.02-.07-.02-.09-.07-.16-.16-.21-.08-.05-.18-.08-.29-.08-.2,0-.36.07-.49.22-.12.15-.18.34-.18.59s.06.45.19.59.29.22.49.22c.07,0,.13,0,.2-.03s.14-.05.2-.08c.03-.02.07-.04.13-.08.05-.04.09-.06.11-.06.04,0,.07.01.09.04s.04.05.04.09-.01.07-.04.1-.08.07-.15.12c-.1.06-.19.11-.29.14-.1.03-.2.04-.31.04-.28,0-.51-.1-.7-.3-.18-.2-.27-.45-.27-.76s.09-.56.28-.76c.19-.2.42-.3.7-.3.08,0,.15,0,.23.03.08.02.16.05.25.08Z"/><path d="M19.08,2023.95c.09,0,.14,0,.17.03s.04.05.04.09-.01.08-.04.1-.07.03-.15.03h-.81c-.07,0-.12,0-.15-.03-.02-.02-.04-.05-.04-.1s.01-.08.04-.09.08-.03.17-.03h.25v-.57l-.57-.97h-.03c-.07,0-.12,0-.14-.03-.02-.02-.04-.05-.04-.1,0-.04.01-.07.03-.09.02-.02.05-.03.1-.03h.47c.07,0,.11,0,.14.03.02.02.04.05.04.1s-.01.08-.04.1c-.03.02-.08.03-.15.03h-.06l.41.74.43-.74h-.07c-.06,0-.1,0-.13-.03-.02-.02-.04-.05-.04-.1s.01-.08.03-.1c.02-.02.07-.03.16-.03h.31c.09,0,.14,0,.17.03s.04.05.04.1-.01.08-.04.1c-.02.02-.07.03-.14.03h-.03l-.58,1v.54h.25Z"/><rect x="10.48" y="2030.48" width="15" height="15" style="fill:#363639;"/><rect x="10.48" y="2030.47" width="15" height="15" style="fill:none; stroke:#000; stroke-miterlimit:10; stroke-width:.5px;"/><path d="M15.93,2037.22s.03-.05.05-.06.05-.02.09-.02c.04,0,.07.01.09.03s.03.06.03.13c0,.11,0,.21,0,.31,0,.1,0,.14,0,.13,0,.05,0,.09-.03.11-.02.02-.05.03-.1.03-.08,0-.12-.05-.15-.16,0-.03-.01-.06-.02-.07-.02-.09-.07-.16-.16-.21-.08-.05-.18-.08-.29-.08-.2,0-.36.07-.49.22-.12.15-.18.34-.18.59s.06.45.19.59.29.22.49.22c.07,0,.13,0,.2-.03s.14-.05.2-.08c.03-.02.07-.04.13-.08.05-.04.09-.06.11-.06.04,0,.07.01.09.04s.04.05.04.09-.01.07-.04.1-.08.07-.15.12c-.1.06-.19.11-.29.14-.1.03-.2.04-.31.04-.28,0-.51-.1-.7-.3-.18-.2-.27-.45-.27-.76s.09-.56.28-.76c.19-.2.42-.3.7-.3.08,0,.15,0,.23.03.08.02.16.05.25.08Z"/><path d="M17.49,2038.35l.37-1.07s.04-.07.07-.09c.03-.02.07-.03.12-.03h.28s.06.01.08.03c.02.02.03.05.03.09,0,.04-.01.07-.04.09s-.07.03-.13.03h-.03l.05,1.55h.04c.07,0,.12,0,.15.03.03.02.04.05.04.09,0,.04-.01.07-.03.09-.02.02-.05.03-.09.03h-.48c-.07,0-.11,0-.14-.03-.02-.02-.04-.05-.04-.1s.01-.08.04-.09c.03-.02.08-.03.16-.03h.07l-.04-1.47-.34.98s-.04.08-.06.1-.06.03-.11.03-.08,0-.11-.03-.05-.05-.06-.1l-.34-.98-.03,1.47h.11c.07,0,.11,0,.14.03.03.02.04.05.04.09,0,.05-.01.08-.04.1s-.07.03-.14.03h-.48s-.07,0-.09-.03c-.02-.02-.03-.05-.03-.09,0-.05.01-.08.04-.09s.07-.03.15-.03h.04l.05-1.55h-.03c-.06,0-.11,0-.13-.03s-.04-.05-.04-.09c0-.04,0-.07.03-.09.02-.02.05-.03.08-.03h.28c.05,0,.09,0,.12.03.03.02.05.05.06.09l.37,1.07Z"/><path d="M19.96,2038.95c.09,0,.14,0,.17.03s.04.05.04.09-.01.08-.04.1-.07.03-.15.03h-.81c-.07,0-.12,0-.15-.03-.02-.02-.04-.05-.04-.1s.01-.08.04-.09.08-.03.17-.03h.25v-.57l-.57-.97h-.03c-.07,0-.12,0-.14-.03-.02-.02-.04-.05-.04-.1,0-.04.01-.07.03-.09.02-.02.05-.03.1-.03h.47c.07,0,.11,0,.14.03.02.02.04.05.04.1s-.01.08-.04.1c-.03.02-.08.03-.15.03h-.06l.41.74.43-.74h-.07c-.06,0-.1,0-.13-.03-.02-.02-.04-.05-.04-.1s.01-.08.03-.1c.02-.02.07-.03.16-.03h.31c.09,0,.14,0,.17.03s.04.05.04.1-.01.08-.04.1c-.02.02-.07.03-.14.03h-.03l-.58,1v.54h.25Z"/><rect x="10.48" y="2045.48" width="15" height="15" style="fill:#231f20;"/><rect x="10.48" y="2045.47" width="15" height="15" style="fill:none; stroke:#000; stroke-miterlimit:10; stroke-width:.5px;"/><path d="M17.47,2053.95h.11c.07,0,.11,0,.14.03.03.02.04.05.04.09,0,.05-.01.08-.04.1-.02.02-.07.03-.14.03h-.58s-.07-.01-.09-.03c-.02-.02-.03-.05-.03-.09s.01-.07.03-.09c.02-.02.06-.03.11-.03h.16v-1.54h-.11c-.09,0-.14,0-.17-.03-.02-.02-.04-.05-.04-.1,0-.04,0-.07.03-.09.02-.02.05-.03.09-.03h.58c.07,0,.11,0,.14.03.02.02.04.05.04.1s-.02.08-.05.1c-.03.02-.09.03-.17.03h-.08v.7l.71-.7h-.06c-.06,0-.1,0-.12-.03s-.04-.05-.04-.09,0-.08.03-.09c.02-.02.05-.03.09-.03h.5s.07.01.09.03c.02.02.03.05.03.09,0,.04-.01.08-.04.1-.03.02-.07.03-.14.03h-.02l-.66.64c.1.02.19.08.29.19.09.11.24.34.43.71h.03c.07,0,.12,0,.14.03.02.02.04.05.04.09,0,.04,0,.07-.03.09-.02.02-.05.03-.09.03h-.16s-.06,0-.08-.01-.03-.03-.05-.05c-.01-.02-.07-.13-.19-.35l-.07-.12c-.07-.13-.14-.23-.22-.3-.07-.07-.15-.11-.23-.12l-.19.18v.54Z"/><rect x="1084.13" y="1940.48" width="15" height="15" style="fill:#00aeef;"/><rect x="1084.13" y="1940.47" width="15" height="15" style="fill:none; stroke:#000; stroke-miterlimit:10; stroke-width:.5px;"/><rect x="1084.13" y="1955.48" width="15" height="15" style="fill:#ec008c;"/><rect x="1084.13" y="1955.47" width="15" height="15" style="fill:none; stroke:#000; stroke-miterlimit:10; stroke-width:.5px;"/><rect x="1084.13" y="1970.48" width="15" height="15" style="fill:#fff200;"/><rect x="1084.13" y="1970.47" width="15" height="15" style="fill:none; stroke:#000; stroke-miterlimit:10; stroke-width:.5px;"/><rect x="1084.13" y="1985.48" width="15" height="15" style="fill:#2e3192;"/><rect x="1084.13" y="1985.47" width="15" height="15" style="fill:none; stroke:#000; stroke-miterlimit:10; stroke-width:.5px;"/><rect x="1084.13" y="2000.48" width="15" height="15" style="fill:#ed1c24;"/><rect x="1084.13" y="2000.47" width="15" height="15" style="fill:none; stroke:#000; stroke-miterlimit:10; stroke-width:.5px;"/><rect x="1084.13" y="2015.48" width="15" height="15" style="fill:#00a651;"/><rect x="1084.13" y="2015.47" width="15" height="15" style="fill:none; stroke:#000; stroke-miterlimit:10; stroke-width:.5px;"/><rect x="1084.13" y="2030.48" width="15" height="15" style="fill:#363639;"/><rect x="1084.13" y="2030.47" width="15" height="15" style="fill:none; stroke:#000; stroke-miterlimit:10; stroke-width:.5px;"/><rect x="1084.13" y="2045.48" width="15" height="15" style="fill:#231f20;"/><rect x="1084.13" y="2045.47" width="15" height="15" style="fill:none; stroke:#000; stroke-miterlimit:10; stroke-width:.5px;"/><rect x="479.81" y="3975.47" width="15" height="15"/><rect x="479.81" y="3975.47" width="15" height="15" style="fill:none; stroke:#fff; stroke-miterlimit:10; stroke-width:.5px;"/><rect x="494.81" y="3975.47" width="15" height="15"/><rect x="494.81" y="3975.47" width="15" height="15" style="fill:none; stroke:#fff; stroke-miterlimit:10; stroke-width:.5px;"/><rect x="509.81" y="3975.47" width="15" height="15" style="fill:#100906;"/><rect x="509.81" y="3975.47" width="15" height="15" style="fill:none; stroke:#fff; stroke-miterlimit:10; stroke-width:.5px;"/><rect x="524.81" y="3975.47" width="15" height="15" style="fill:#28211f;"/><rect x="524.81" y="3975.47" width="15" height="15" style="fill:none; stroke:#fff; stroke-miterlimit:10; stroke-width:.5px;"/><rect x="539.81" y="3975.47" width="15" height="15" style="fill:#3c3533;"/><rect x="539.81" y="3975.47" width="15" height="15" style="fill:none; stroke:#fff; stroke-miterlimit:10; stroke-width:.5px;"/><rect x="554.81" y="3975.47" width="15" height="15" style="fill:#524b48;"/><rect x="554.81" y="3975.47" width="15" height="15" style="fill:none; stroke:#fff; stroke-miterlimit:10; stroke-width:.5px;"/><rect x="569.81" y="3975.47" width="15" height="15" style="fill:#6c6361;"/><rect x="569.81" y="3975.47" width="15" height="15" style="fill:none; stroke:#fff; stroke-miterlimit:10; stroke-width:.5px;"/><rect x="584.81" y="3975.47" width="15" height="15" style="fill:#88817f;"/><rect x="584.81" y="3975.47" width="15" height="15" style="fill:none; stroke:#fff; stroke-miterlimit:10; stroke-width:.5px;"/><rect x="599.81" y="3975.47" width="15" height="15" style="fill:#a9a3a1;"/><rect x="599.81" y="3975.47" width="15" height="15" style="fill:none; stroke:#fff; stroke-miterlimit:10; stroke-width:.5px;"/><rect x="614.81" y="3975.47" width="15" height="15" style="fill:#cecac8;"/><rect x="614.81" y="3975.47" width="15" height="15" style="fill:none; stroke:#fff; stroke-miterlimit:10; stroke-width:.5px;"/><path d="M26.98,17.98c0,4.97-4.03,9-9,9s-9-4.03-9-9,4.03-9,9-9,9,4.03,9,9" style="fill:#fff;"/><circle cx="17.98" cy="17.98" r="9" style="fill:none; stroke:#000; stroke-miterlimit:10; stroke-width:.3px;"/><g style="clip-path:url(#b);"><path d="M26.98,17.98c0,4.97-4.03,9-9,9s-9-4.03-9-9,4.03-9,9-9,9,4.03,9,9"/></g><g style="clip-path:url(#c);"><path d="M26.85,19.55c-.86,4.9-5.53,8.16-10.43,7.3-4.9-.86-8.16-5.53-7.3-10.43.86-4.9,5.53-8.16,10.43-7.3,4.89.86,8.16,5.53,7.3,10.43"/></g><g style="clip-path:url(#d);"><path d="M26.44,21.06c-1.7,4.67-6.86,7.08-11.53,5.38-4.67-1.7-7.08-6.86-5.38-11.53,1.7-4.67,6.86-7.08,11.53-5.38,4.67,1.7,7.08,6.86,5.38,11.53"/></g><g style="clip-path:url(#e);"><path d="M25.78,22.48c-2.49,4.31-7.99,5.78-12.29,3.29-4.31-2.49-5.78-7.99-3.29-12.29,2.49-4.3,7.99-5.78,12.29-3.29,4.3,2.49,5.78,7.99,3.29,12.29"/></g><g style="clip-path:url(#f);"><path d="M24.88,23.77c-3.2,3.81-8.87,4.3-12.68,1.11-3.81-3.2-4.3-8.87-1.11-12.68,3.19-3.81,8.87-4.31,12.68-1.11,3.81,3.19,4.3,8.87,1.11,12.68"/></g><g style="clip-path:url(#g);"><path d="M23.77,24.88c-3.81,3.2-9.48,2.7-12.68-1.11-3.2-3.81-2.7-9.49,1.11-12.68,3.81-3.2,9.48-2.7,12.68,1.11,3.19,3.81,2.7,9.48-1.11,12.68"/></g><g style="clip-path:url(#h);"><path d="M22.48,25.78c-4.31,2.49-9.81,1.01-12.29-3.29-2.49-4.3-1.01-9.81,3.29-12.29,4.3-2.49,9.81-1.01,12.29,3.29,2.49,4.3,1.01,9.81-3.29,12.29"/></g><g style="clip-path:url(#i);"><path d="M21.06,26.44c-4.67,1.7-9.84-.71-11.53-5.38-1.7-4.67.71-9.83,5.38-11.54,4.67-1.7,9.83.71,11.53,5.38,1.7,4.67-.71,9.83-5.38,11.53"/></g><g style="clip-path:url(#j);"><path d="M19.55,26.85c-4.9.86-9.56-2.41-10.43-7.3s2.4-9.56,7.3-10.43c4.9-.86,9.56,2.41,10.43,7.3.86,4.9-2.41,9.56-7.3,10.43"/></g><g style="clip-path:url(#k);"><path d="M17.98,26.98c-4.97,0-9-4.03-9-9s4.03-9,9-9,9,4.03,9,9-4.03,9-9,9"/></g><g style="clip-path:url(#l);"><path d="M16.42,26.85c-4.89-.86-8.16-5.53-7.3-10.43.86-4.9,5.53-8.16,10.43-7.3,4.89.86,8.16,5.53,7.3,10.43-.86,4.9-5.53,8.16-10.43,7.3"/></g><g style="clip-path:url(#m);"><path d="M14.9,26.44c-4.67-1.7-7.08-6.86-5.38-11.53,1.7-4.67,6.86-7.08,11.53-5.38,4.67,1.7,7.08,6.86,5.38,11.54-1.7,4.67-6.86,7.08-11.53,5.38"/></g><g style="clip-path:url(#n);"><path d="M13.48,25.78c-4.3-2.48-5.78-7.99-3.29-12.29,2.49-4.3,7.99-5.78,12.29-3.29,4.31,2.49,5.78,7.99,3.29,12.29-2.48,4.3-7.99,5.78-12.29,3.29"/></g><g style="clip-path:url(#o);"><path d="M12.2,24.88c-3.81-3.19-4.3-8.87-1.11-12.68,3.19-3.81,8.87-4.3,12.68-1.11,3.81,3.19,4.3,8.87,1.11,12.68-3.19,3.81-8.87,4.3-12.68,1.11"/></g><g style="clip-path:url(#p);"><path d="M11.09,23.77c-3.19-3.81-2.7-9.48,1.11-12.68,3.81-3.2,9.48-2.7,12.68,1.11,3.19,3.81,2.7,9.48-1.11,12.68-3.81,3.2-9.48,2.7-12.68-1.11"/></g><g style="clip-path:url(#q);"><path d="M10.19,22.48c-2.48-4.3-1.01-9.81,3.29-12.29,4.31-2.49,9.81-1.01,12.29,3.29,2.49,4.31,1.01,9.81-3.29,12.29-4.3,2.49-9.81,1.01-12.29-3.29"/></g><g style="clip-path:url(#r);"><path d="M9.53,21.06c-1.7-4.67.71-9.83,5.38-11.53,4.67-1.7,9.84.71,11.53,5.38,1.7,4.67-.71,9.83-5.38,11.53-4.67,1.7-9.83-.71-11.53-5.38"/></g><g style="clip-path:url(#s);"><path d="M9.12,19.55c-.86-4.89,2.4-9.56,7.3-10.43,4.89-.86,9.56,2.4,10.43,7.3.86,4.9-2.41,9.56-7.3,10.43-4.89.86-9.56-2.41-10.43-7.3"/></g><g style="clip-path:url(#t);"><path d="M8.98,17.98c0-4.97,4.03-9,9-9s9,4.03,9,9-4.03,9-9,9-9-4.03-9-9"/></g><g style="clip-path:url(#u);"><path d="M9.12,16.42c.86-4.89,5.53-8.16,10.43-7.3,4.89.86,8.16,5.53,7.3,10.43-.86,4.9-5.53,8.16-10.43,7.3-4.89-.86-8.16-5.53-7.3-10.43"/></g><g style="clip-path:url(#v);"><path d="M9.53,14.9c1.7-4.67,6.86-7.08,11.53-5.38,4.67,1.7,7.08,6.86,5.38,11.53-1.7,4.67-6.86,7.08-11.53,5.38-4.67-1.7-7.08-6.86-5.38-11.54"/></g><g style="clip-path:url(#w);"><path d="M10.19,13.48c2.48-4.3,7.99-5.78,12.29-3.29,4.31,2.49,5.78,7.99,3.29,12.29-2.49,4.31-7.99,5.78-12.29,3.29-4.3-2.49-5.78-7.99-3.29-12.29"/></g><g style="clip-path:url(#x);"><path d="M11.09,12.2c3.19-3.81,8.87-4.3,12.68-1.11,3.81,3.2,4.3,8.87,1.11,12.68-3.19,3.81-8.87,4.3-12.68,1.11-3.81-3.19-4.3-8.87-1.11-12.68"/></g><g style="clip-path:url(#y);"><path d="M12.2,11.09c3.81-3.19,9.48-2.7,12.68,1.11,3.19,3.81,2.7,9.49-1.11,12.68-3.81,3.2-9.48,2.7-12.68-1.11-3.19-3.81-2.7-9.48,1.11-12.68"/></g><g style="clip-path:url(#z);"><path d="M13.48,10.19c4.3-2.48,9.81-1.01,12.29,3.29,2.49,4.3,1.01,9.81-3.29,12.29-4.31,2.49-9.81,1.01-12.29-3.29-2.49-4.3-1.01-9.81,3.29-12.29"/></g><g style="clip-path:url(#aa);"><path d="M14.9,9.53c4.67-1.7,9.84.71,11.53,5.38,1.7,4.67-.71,9.83-5.38,11.54-4.67,1.7-9.83-.71-11.53-5.38-1.7-4.67.71-9.83,5.38-11.54"/></g><g style="clip-path:url(#ab);"><path d="M16.42,9.12c4.89-.86,9.56,2.41,10.43,7.3.86,4.9-2.41,9.56-7.3,10.43-4.89.86-9.56-2.41-10.43-7.3-.86-4.9,2.41-9.56,7.3-10.43"/></g><g style="clip-path:url(#ac);"><path d="M17.98,8.98c4.97,0,9,4.03,9,9s-4.03,9-9,9-9-4.03-9-9,4.03-9,9-9"/></g><g style="clip-path:url(#ad);"><path d="M19.55,9.12c4.89.86,8.16,5.53,7.3,10.43-.86,4.9-5.53,8.16-10.43,7.3-4.89-.86-8.16-5.53-7.3-10.43s5.53-8.16,10.43-7.3"/></g><g style="clip-path:url(#ae);"><path d="M21.06,9.53c4.67,1.7,7.08,6.87,5.38,11.54-1.7,4.67-6.86,7.08-11.53,5.38-4.67-1.7-7.08-6.86-5.38-11.54,1.7-4.67,6.86-7.08,11.53-5.38"/></g><g style="clip-path:url(#af);"><path d="M22.48,10.19c4.3,2.49,5.78,7.99,3.29,12.29-2.48,4.3-7.99,5.78-12.29,3.29-4.31-2.49-5.78-7.99-3.29-12.29,2.48-4.3,7.99-5.78,12.29-3.29"/></g><g style="clip-path:url(#ag);"><path d="M23.77,11.09c3.81,3.2,4.3,8.87,1.11,12.68-3.19,3.81-8.87,4.3-12.68,1.11-3.81-3.19-4.3-8.87-1.11-12.68,3.19-3.81,8.87-4.3,12.68-1.11"/></g><g style="clip-path:url(#ah);"><path d="M24.88,12.2c3.19,3.81,2.7,9.49-1.11,12.68-3.81,3.2-9.48,2.7-12.68-1.11-3.19-3.81-2.7-9.48,1.11-12.68,3.81-3.2,9.48-2.7,12.68,1.11"/></g><g style="clip-path:url(#ai);"><path d="M25.78,13.48c2.48,4.31,1.01,9.81-3.29,12.29-4.3,2.49-9.81,1.01-12.29-3.29-2.49-4.3-1.01-9.81,3.29-12.29,4.3-2.49,9.81-1.01,12.29,3.29"/></g><g style="clip-path:url(#aj);"><path d="M26.44,14.9c1.7,4.67-.71,9.84-5.38,11.54-4.67,1.7-9.83-.71-11.53-5.38-1.7-4.67.71-9.83,5.38-11.53,4.67-1.7,9.83.71,11.53,5.38"/></g><g style="clip-path:url(#ak);"><path d="M26.85,16.42c.86,4.9-2.41,9.56-7.3,10.43-4.89.86-9.56-2.4-10.43-7.3-.86-4.89,2.41-9.56,7.3-10.43,4.89-.86,9.56,2.41,10.43,7.3"/></g><path d="M1100.63,3982.97c0,4.97-4.03,9-9,9s-9-4.03-9-9,4.03-9,9-9,9,4.03,9,9" style="fill:#fff;"/><circle cx="1091.63" cy="3982.97" r="9" style="fill:none; stroke:#000; stroke-miterlimit:10; stroke-width:.3px;"/><g style="clip-path:url(#al);"><path d="M1100.63,3982.97c0,4.97-4.03,9-9,9s-9-4.03-9-9,4.03-9,9-9,9,4.03,9,9"/></g><g style="clip-path:url(#am);"><path d="M1100.49,3984.53c-.86,4.89-5.53,8.16-10.43,7.3-4.9-.86-8.16-5.53-7.3-10.43.86-4.89,5.53-8.16,10.43-7.3,4.9.86,8.16,5.53,7.3,10.43"/></g><g style="clip-path:url(#an);"><path d="M1100.09,3986.05c-1.7,4.67-6.87,7.08-11.54,5.38-4.67-1.7-7.08-6.86-5.38-11.53,1.7-4.67,6.86-7.08,11.54-5.38,4.67,1.7,7.08,6.86,5.38,11.53"/></g><g style="clip-path:url(#ao);"><path d="M1099.42,3987.47c-2.49,4.3-7.99,5.78-12.29,3.29-4.31-2.49-5.78-7.99-3.29-12.29,2.48-4.31,7.99-5.78,12.29-3.29,4.3,2.48,5.78,7.99,3.29,12.29"/></g><g style="clip-path:url(#ap);"><path d="M1098.52,3988.75c-3.2,3.81-8.87,4.3-12.68,1.11-3.81-3.19-4.3-8.87-1.11-12.68,3.19-3.81,8.87-4.31,12.68-1.11,3.81,3.19,4.3,8.87,1.11,12.68"/></g><g style="clip-path:url(#aq);"><path d="M1097.41,3989.86c-3.81,3.19-9.48,2.7-12.68-1.11-3.19-3.81-2.7-9.48,1.11-12.68,3.81-3.19,9.48-2.7,12.68,1.11,3.2,3.81,2.7,9.48-1.11,12.68"/></g><g style="clip-path:url(#ar);"><path d="M1096.13,3990.76c-4.31,2.48-9.81,1.01-12.29-3.29-2.49-4.31-1.01-9.81,3.29-12.29,4.3-2.49,9.81-1.01,12.29,3.29,2.49,4.3,1.01,9.81-3.29,12.29"/></g><g style="clip-path:url(#as);"><path d="M1094.71,3991.42c-4.67,1.7-9.84-.71-11.54-5.38-1.7-4.67.71-9.84,5.38-11.53,4.67-1.7,9.83.71,11.53,5.38,1.7,4.67-.71,9.83-5.38,11.53"/></g><g style="clip-path:url(#at);"><path d="M1093.19,3991.83c-4.9.86-9.56-2.4-10.43-7.3-.86-4.89,2.4-9.56,7.3-10.43,4.9-.86,9.56,2.41,10.43,7.3.86,4.89-2.41,9.56-7.3,10.43"/></g><g style="clip-path:url(#au);"><path d="M1091.63,3991.97c-4.97,0-9-4.03-9-9s4.03-9,9-9,9,4.03,9,9-4.03,9-9,9"/></g><g style="clip-path:url(#av);"><path d="M1090.07,3991.83c-4.9-.86-8.16-5.53-7.3-10.43.86-4.89,5.53-8.16,10.43-7.3,4.9.86,8.16,5.53,7.3,10.43-.86,4.89-5.53,8.16-10.43,7.3"/></g><g style="clip-path:url(#aw);"><path d="M1088.55,3991.42c-4.67-1.7-7.08-6.86-5.38-11.53,1.7-4.67,6.86-7.08,11.53-5.38,4.67,1.7,7.08,6.86,5.38,11.53-1.7,4.67-6.86,7.08-11.53,5.38"/></g><g style="clip-path:url(#ax);"><path d="M1087.13,3990.76c-4.31-2.48-5.78-7.99-3.29-12.29,2.48-4.31,7.99-5.78,12.29-3.29,4.3,2.49,5.78,7.99,3.29,12.29-2.48,4.3-7.99,5.78-12.29,3.29"/></g><g style="clip-path:url(#ay);"><path d="M1085.84,3989.86c-3.81-3.19-4.3-8.87-1.11-12.68,3.19-3.81,8.87-4.3,12.68-1.11s4.3,8.87,1.11,12.68c-3.2,3.81-8.87,4.3-12.68,1.11"/></g><g style="clip-path:url(#az);"><path d="M1084.73,3988.75c-3.2-3.81-2.7-9.48,1.11-12.68,3.81-3.19,9.49-2.7,12.68,1.11,3.19,3.81,2.7,9.48-1.11,12.68-3.81,3.19-9.48,2.7-12.68-1.11"/></g><g style="clip-path:url(#ba);"><path d="M1083.83,3987.47c-2.49-4.3-1.01-9.81,3.29-12.29,4.31-2.49,9.81-1.01,12.29,3.29,2.49,4.31,1.01,9.81-3.29,12.29-4.3,2.49-9.81,1.01-12.29-3.29"/></g><g style="clip-path:url(#bb);"><path d="M1083.17,3986.05c-1.7-4.67.71-9.84,5.38-11.53,4.67-1.7,9.84.71,11.54,5.38,1.7,4.67-.71,9.83-5.38,11.53-4.67,1.7-9.83-.71-11.53-5.38"/></g><g style="clip-path:url(#bc);"><path d="M1082.77,3984.53c-.86-4.89,2.4-9.56,7.3-10.43,4.9-.86,9.56,2.41,10.43,7.3.86,4.89-2.41,9.56-7.3,10.43-4.9.86-9.56-2.41-10.43-7.3"/></g><g style="clip-path:url(#bd);"><path d="M1082.63,3982.97c0-4.97,4.03-9,9-9s9,4.03,9,9-4.03,9-9,9-9-4.03-9-9"/></g><g style="clip-path:url(#be);"><path d="M1082.77,3981.4c.86-4.89,5.53-8.16,10.43-7.3,4.9.86,8.16,5.53,7.3,10.43-.86,4.89-5.53,8.16-10.43,7.3s-8.16-5.53-7.3-10.43"/></g><g style="clip-path:url(#bf);"><path d="M1083.17,3979.89c1.7-4.67,6.86-7.08,11.53-5.38,4.67,1.7,7.08,6.86,5.38,11.53-1.7,4.67-6.86,7.08-11.54,5.38s-7.08-6.86-5.38-11.53"/></g><g style="clip-path:url(#bg);"><path d="M1083.83,3978.47c2.48-4.3,7.99-5.78,12.29-3.29,4.31,2.48,5.78,7.99,3.29,12.29-2.48,4.31-7.99,5.78-12.29,3.29-4.3-2.48-5.78-7.99-3.29-12.29"/></g><g style="clip-path:url(#bh);"><path d="M1084.73,3977.18c3.19-3.81,8.87-4.3,12.68-1.11,3.81,3.19,4.3,8.87,1.11,12.68-3.19,3.81-8.87,4.31-12.68,1.11-3.81-3.19-4.3-8.87-1.11-12.68"/></g><g style="clip-path:url(#bi);"><path d="M1085.84,3976.07c3.81-3.19,9.48-2.7,12.68,1.11,3.19,3.81,2.7,9.48-1.11,12.68s-9.48,2.7-12.68-1.11c-3.2-3.81-2.7-9.48,1.11-12.68"/></g><g style="clip-path:url(#bj);"><path d="M1087.13,3975.17c4.3-2.48,9.81-1.01,12.29,3.29,2.49,4.3,1.01,9.81-3.29,12.29-4.31,2.49-9.81,1.01-12.29-3.29-2.49-4.3-1.01-9.81,3.29-12.29"/></g><g style="clip-path:url(#bk);"><path d="M1088.55,3974.51c4.67-1.7,9.83.71,11.53,5.38,1.7,4.67-.71,9.83-5.38,11.53-4.67,1.7-9.83-.71-11.53-5.38-1.7-4.67.71-9.83,5.38-11.53"/></g><g style="clip-path:url(#bl);"><path d="M1090.07,3974.1c4.89-.86,9.56,2.41,10.43,7.3.86,4.89-2.4,9.56-7.3,10.43-4.9.86-9.56-2.41-10.43-7.3-.86-4.89,2.41-9.56,7.3-10.43"/></g><g style="clip-path:url(#bm);"><path d="M1091.63,3973.97c4.97,0,9,4.03,9,9s-4.03,9-9,9-9-4.03-9-9,4.03-9,9-9"/></g><g style="clip-path:url(#bn);"><path d="M1093.19,3974.1c4.89.86,8.16,5.53,7.3,10.43-.86,4.9-5.53,8.16-10.43,7.3-4.9-.86-8.16-5.53-7.3-10.43.86-4.89,5.53-8.16,10.43-7.3"/></g><g style="clip-path:url(#bo);"><path d="M1094.71,3974.51c4.67,1.7,7.08,6.86,5.38,11.53-1.7,4.67-6.86,7.08-11.53,5.38-4.67-1.7-7.08-6.86-5.38-11.53,1.7-4.67,6.86-7.08,11.54-5.38"/></g><g style="clip-path:url(#bp);"><path d="M1096.13,3975.17c4.3,2.49,5.78,7.99,3.29,12.29-2.48,4.31-7.99,5.78-12.29,3.29-4.31-2.49-5.78-7.99-3.29-12.29,2.48-4.3,7.99-5.78,12.29-3.29"/></g><g style="clip-path:url(#bq);"><path d="M1097.41,3976.07c3.81,3.2,4.3,8.87,1.11,12.68-3.19,3.81-8.87,4.3-12.68,1.11-3.81-3.19-4.3-8.87-1.11-12.68,3.2-3.81,8.87-4.3,12.68-1.11"/></g><g style="clip-path:url(#br);"><path d="M1098.52,3977.18c3.19,3.81,2.7,9.48-1.11,12.68-3.81,3.19-9.49,2.7-12.68-1.11-3.19-3.81-2.7-9.48,1.11-12.68,3.81-3.19,9.48-2.7,12.68,1.11"/></g><g style="clip-path:url(#bs);"><path d="M1099.42,3978.47c2.48,4.31,1.01,9.81-3.29,12.29-4.31,2.49-9.81,1.01-12.29-3.29-2.49-4.3-1.01-9.81,3.29-12.29,4.3-2.49,9.81-1.01,12.29,3.29"/></g><g style="clip-path:url(#bt);"><path d="M1100.09,3979.89c1.7,4.67-.71,9.84-5.38,11.53-4.67,1.7-9.84-.71-11.54-5.38-1.7-4.67.71-9.83,5.38-11.53,4.67-1.7,9.83.71,11.54,5.38"/></g><g style="clip-path:url(#bu);"><path d="M1100.49,3981.4c.86,4.9-2.41,9.56-7.3,10.43-4.9.86-9.56-2.4-10.43-7.3-.86-4.9,2.41-9.56,7.3-10.43,4.9-.86,9.56,2.41,10.43,7.3"/></g></svg>