<svg width="811" height="171" viewBox="0 0 811 171" fill="none" xmlns="http://www.w3.org/2000/svg">
<g clip-path="url(#clip0_8483_991)">
<path d="M171.902 144.886L212.553 30.3764H246.562L287.213 144.886H256.754L251.486 128.167H207.858L202.591 144.886H171.902ZM215.874 102.403H243.471L229.73 58.4312L215.874 102.403ZM322.692 144.886H295.21V59.0037H322.692V68.508C331.166 62.21 346.51 57.2861 360.71 57.2861C377.657 57.2861 394.032 65.4162 394.032 87.6311C394.032 109.96 394.032 122.556 394.032 144.886H366.55V96.4483C366.55 88.5471 363.458 82.7071 352.923 82.7071C340.212 82.7071 329.219 89.3487 322.692 97.3643V144.886ZM403.18 35.4148C403.18 25.6815 410.623 19.1544 421.731 19.1544C432.723 19.1544 440.167 25.6815 440.167 35.4148C440.167 45.1481 432.723 51.6751 421.731 51.6751C410.623 51.6751 403.18 45.1481 403.18 35.4148ZM408.104 144.886V59.0037H435.586V144.886H408.104ZM476.784 144.886H449.301V59.0037H476.784V69.3096C486.517 62.0955 499.8 57.2861 511.251 57.2861C521.786 57.2861 531.29 60.2633 535.069 70.6837C544.917 62.7825 559.116 57.2861 571.254 57.2861C584.88 57.2861 596.789 62.0955 596.789 81.9056V144.886H569.307V96.4483C569.307 88.5471 567.132 82.7071 559.688 82.7071C552.36 82.7071 543.772 88.2036 536.787 96.4483V144.886H509.304V96.4483C509.304 88.5471 507.129 82.7071 499.685 82.7071C492.357 82.7071 483.769 88.2036 476.784 96.4483V144.886ZM637.978 144.886H610.496V59.0037H637.978V69.3096C647.711 62.0955 660.994 57.2861 672.445 57.2861C682.98 57.2861 692.484 60.2633 696.263 70.6837C706.111 62.7825 720.31 57.2861 732.448 57.2861C746.075 57.2861 757.984 62.0955 757.984 81.9056V144.886H730.501V96.4483C730.501 88.5471 728.326 82.7071 720.883 82.7071C713.554 82.7071 704.966 88.2036 697.981 96.4483V144.886H670.499V96.4483C670.499 88.5471 668.323 82.7071 660.88 82.7071C653.551 82.7071 644.963 88.2036 637.978 96.4483V144.886ZM771.69 130.343C771.69 120.61 779.133 114.083 790.241 114.083C801.233 114.083 808.677 120.61 808.677 130.343C808.677 140.076 801.233 146.603 790.241 146.603C779.133 146.603 771.69 140.076 771.69 130.343Z" fill="#171526"/>
<path fill-rule="evenodd" clip-rule="evenodd" d="M96.0391 132.054C94.972 136.49 90.9786 139.786 86.2153 139.786L31.9829 139.786C26.4027 139.786 21.8791 135.262 21.8791 129.682V75.4497C21.8791 70.4561 25.5017 66.3086 30.2622 65.4919L30.2622 45.1864C14.3223 46.0784 1.67156 59.2867 1.67156 75.4497L1.67156 129.682C1.67156 146.423 15.2424 159.993 31.9829 159.993L86.2153 159.993C102.158 159.993 115.225 147.686 116.435 132.054L96.0391 132.054ZM96.3191 97.0276L116.527 97.0276L116.527 75.4497C116.527 58.7092 102.956 45.1384 86.2153 45.1384L65.2886 45.1384L65.2886 65.3459L86.2153 65.3459C91.7954 65.3459 96.3191 69.8696 96.3191 75.4497V97.0276Z" fill="#171526"/>
<rect x="48.4648" y="113.194" width="94.6475" height="94.6475" rx="20.2075" transform="rotate(-90 48.4648 113.194)" stroke="#171526" stroke-width="20.2075"/>
</g>
<defs>
<clipPath id="clip0_8483_991">
<rect width="811" height="171" fill="white"/>
</clipPath>
</defs>
</svg>
