<svg width="32" height="32" viewBox="0 0 32 32" fill="none" xmlns="http://www.w3.org/2000/svg">
<path fill-rule="evenodd" clip-rule="evenodd" d="M18.6063 22.7398C18.4555 23.3671 17.8908 23.8333 17.2172 23.8333L9.54923 23.8333C8.76025 23.8333 8.12065 23.1937 8.12065 22.4047L8.12065 14.7368C8.12065 14.0299 8.63397 13.443 9.30815 13.3284L9.30815 10.4577C7.05336 10.5827 5.26349 12.4507 5.26349 14.7368L5.26349 22.4047C5.26349 24.7717 7.18228 26.6905 9.54923 26.6905L17.2172 26.6905C19.4714 26.6905 21.3191 24.9501 21.49 22.7398H18.6063ZM18.6458 17.7874H21.5029V14.7368C21.5029 12.3698 19.5841 10.451 17.2172 10.451L14.2606 10.451L14.2606 13.3082L17.2172 13.3082C18.0062 13.3082 18.6458 13.9478 18.6458 14.7368L18.6458 17.7874Z" fill="#171526"/>
<rect x="11.8809" y="20.0734" width="13.3823" height="13.3823" rx="2.85716" transform="rotate(-90 11.8809 20.0734)" stroke="#171526" stroke-width="2.85716"/>
</svg>
