<?xml version="1.0" encoding="UTF-8"?><svg id="a" xmlns="http://www.w3.org/2000/svg" viewBox="0 0 100 200"><rect x="79" y="40" width="15" height="15" style="fill:#00aeef;"/><rect x="79" y="40" width="15" height="15" style="fill:none; stroke:#000; stroke-miterlimit:10; stroke-width:.5px;"/><rect x="79" y="55" width="15" height="15" style="fill:#ec008c;"/><rect x="79" y="55" width="15" height="15" style="fill:none; stroke:#000; stroke-miterlimit:10; stroke-width:.5px;"/><rect x="79" y="70" width="15" height="15" style="fill:#fff200;"/><rect x="79" y="70" width="15" height="15" style="fill:none; stroke:#000; stroke-miterlimit:10; stroke-width:.5px;"/><rect x="79" y="85" width="15" height="15" style="fill:#2e3192;"/><rect x="79" y="85" width="15" height="15" style="fill:none; stroke:#000; stroke-miterlimit:10; stroke-width:.5px;"/><rect x="79" y="100" width="15" height="15" style="fill:#ed1c24;"/><rect x="79" y="100" width="15" height="15" style="fill:none; stroke:#000; stroke-miterlimit:10; stroke-width:.5px;"/><rect x="79" y="115" width="15" height="15" style="fill:#00a651;"/><rect x="79" y="115" width="15" height="15" style="fill:none; stroke:#000; stroke-miterlimit:10; stroke-width:.5px;"/><rect x="79" y="130" width="15" height="15" style="fill:#363639;"/><rect x="79" y="130" width="15" height="15" style="fill:none; stroke:#000; stroke-miterlimit:10; stroke-width:.5px;"/><rect x="79" y="145" width="15" height="15" style="fill:#231f20;"/><rect x="79" y="145" width="15" height="15" style="fill:none; stroke:#000; stroke-miterlimit:10; stroke-width:.5px;"/></svg>