<?xml version="1.0" encoding="UTF-8"?><svg id="a" xmlns="http://www.w3.org/2000/svg" viewBox="0 0 100 200"><rect x="6" y="40" width="15" height="15" style="fill:#00aeef;"/><rect x="6" y="40" width="15" height="15" style="fill:none; stroke:#000; stroke-miterlimit:10; stroke-width:.5px;"/><path d="M13.87,46.74s.03-.05,.05-.06c.02-.01,.05-.02,.09-.02,.04,0,.07,.01,.09,.03,.02,.02,.03,.06,.03,.13,0,.11,0,.22,0,.31,0,.1,0,.14,0,.13,0,.05,0,.09-.03,.11-.02,.02-.05,.03-.1,.03-.08,0-.12-.05-.15-.16,0-.03-.01-.06-.02-.07-.02-.09-.07-.16-.16-.21s-.18-.08-.29-.08c-.2,0-.36,.07-.49,.22-.12,.15-.18,.35-.18,.59s.06,.45,.19,.59c.12,.15,.29,.22,.49,.22,.07,0,.13,0,.2-.03,.07-.02,.14-.05,.2-.08,.03-.02,.07-.04,.13-.08s.09-.06,.11-.06c.04,0,.07,.01,.09,.03s.04,.05,.04,.09-.01,.07-.04,.1c-.03,.03-.08,.07-.15,.12-.1,.06-.19,.11-.29,.14s-.2,.04-.31,.04c-.28,0-.51-.1-.7-.3-.18-.2-.27-.45-.27-.76s.09-.56,.28-.76c.19-.2,.42-.3,.7-.3,.08,0,.15,0,.23,.03,.08,.02,.16,.05,.25,.08Z"/><rect x="6" y="55" width="15" height="15" style="fill:#ec008c;"/><rect x="6" y="55" width="15" height="15" style="fill:none; stroke:#000; stroke-miterlimit:10; stroke-width:.5px;"/><path d="M13.34,62.87l.37-1.07s.04-.07,.07-.09c.03-.02,.07-.03,.12-.03h.28s.06,0,.08,.03,.03,.05,.03,.09c0,.04-.01,.07-.04,.09s-.07,.02-.13,.02h-.03l.05,1.55h.04c.07,0,.12,0,.15,.02,.03,.02,.04,.05,.04,.09,0,.04-.01,.07-.03,.09s-.05,.03-.09,.03h-.48c-.07,0-.11,0-.14-.03-.02-.02-.04-.05-.04-.1s.01-.08,.04-.09c.03-.02,.08-.03,.16-.03h.07l-.04-1.47-.34,.98s-.04,.08-.06,.1c-.03,.02-.06,.03-.11,.03-.05,0-.08,0-.11-.03-.02-.02-.04-.05-.06-.1l-.34-.98-.03,1.47h.11c.07,0,.11,0,.14,.03,.03,.02,.04,.05,.04,.09,0,.05-.01,.08-.04,.1-.02,.02-.07,.03-.14,.03h-.48s-.07-.01-.09-.03c-.02-.02-.03-.05-.03-.09,0-.05,.01-.08,.04-.09,.02-.02,.07-.02,.15-.02h.04l.05-1.55h-.03c-.06,0-.11,0-.13-.02-.02-.02-.04-.05-.04-.09,0-.04,0-.07,.03-.09s.05-.03,.08-.03h.28c.05,0,.09,0,.12,.03,.03,.02,.05,.05,.06,.09l.37,1.07Z"/><rect x="6" y="70" width="15" height="15" style="fill:#fff200;"/><rect x="6" y="70" width="15" height="15" style="fill:none; stroke:#000; stroke-miterlimit:10; stroke-width:.5px;"/><path d="M13.71,78.47c.09,0,.14,0,.17,.02s.04,.05,.04,.09-.01,.08-.04,.1-.07,.03-.15,.03h-.81c-.07,0-.12,0-.15-.03-.02-.02-.04-.05-.04-.1s.01-.08,.04-.09c.03-.02,.08-.02,.17-.02h.25v-.57l-.57-.97h-.03c-.07,0-.12,0-.14-.03-.03-.02-.04-.05-.04-.1,0-.04,.01-.07,.03-.09,.02-.02,.05-.03,.1-.03h.47c.07,0,.11,0,.14,.03s.04,.05,.04,.1-.01,.08-.04,.1c-.03,.02-.08,.03-.15,.03h-.06l.41,.74,.43-.74h-.07c-.06,0-.1,0-.13-.03-.02-.02-.04-.05-.04-.1,0-.05,.01-.08,.03-.1,.02-.02,.07-.03,.16-.03h.31c.09,0,.14,0,.17,.03s.04,.05,.04,.1-.01,.08-.04,.1-.07,.03-.14,.03h-.03l-.58,1v.54h.25Z"/><rect x="6" y="85" width="15" height="15" style="fill:#2e3192;"/><rect x="6" y="85" width="15" height="15" style="fill:none; stroke:#000; stroke-miterlimit:10; stroke-width:.5px;"/><g><path d="M12.66,91.74s.03-.05,.05-.06c.02-.01,.05-.02,.09-.02,.04,0,.07,.01,.09,.03,.02,.02,.03,.06,.03,.13,0,.11,0,.22,0,.31,0,.1,0,.14,0,.13,0,.05,0,.09-.03,.11-.02,.02-.05,.03-.1,.03-.08,0-.12-.05-.15-.16,0-.03-.01-.06-.02-.07-.02-.09-.07-.16-.16-.21s-.18-.08-.29-.08c-.2,0-.36,.07-.49,.22-.12,.15-.18,.35-.18,.59s.06,.45,.19,.59c.12,.15,.29,.22,.49,.22,.07,0,.13,0,.2-.03,.07-.02,.14-.05,.2-.08,.03-.02,.07-.04,.13-.08s.09-.06,.11-.06c.04,0,.07,.01,.09,.03s.04,.05,.04,.09-.01,.07-.04,.1c-.03,.03-.08,.07-.15,.12-.1,.06-.19,.11-.29,.14s-.2,.04-.31,.04c-.28,0-.51-.1-.7-.3-.18-.2-.27-.45-.27-.76s.09-.56,.28-.76c.19-.2,.42-.3,.7-.3,.08,0,.15,0,.23,.03,.08,.02,.16,.05,.25,.08Z"/><path d="M14.22,92.87l.37-1.07s.04-.07,.07-.09c.03-.02,.07-.03,.12-.03h.28s.06,0,.08,.03,.03,.05,.03,.09c0,.04-.01,.07-.04,.09s-.07,.02-.13,.02h-.03l.05,1.55h.04c.07,0,.12,0,.15,.02,.03,.02,.04,.05,.04,.09,0,.04-.01,.07-.03,.09s-.05,.03-.09,.03h-.48c-.07,0-.11,0-.14-.03-.02-.02-.04-.05-.04-.1s.01-.08,.04-.09c.03-.02,.08-.03,.16-.03h.07l-.04-1.47-.34,.98s-.04,.08-.06,.1c-.03,.02-.06,.03-.11,.03-.05,0-.08,0-.11-.03-.02-.02-.04-.05-.06-.1l-.34-.98-.03,1.47h.11c.07,0,.11,0,.14,.03,.03,.02,.04,.05,.04,.09,0,.05-.01,.08-.04,.1-.02,.02-.07,.03-.14,.03h-.48s-.07-.01-.09-.03c-.02-.02-.03-.05-.03-.09,0-.05,.01-.08,.04-.09,.02-.02,.07-.02,.15-.02h.04l.05-1.55h-.03c-.06,0-.11,0-.13-.02-.02-.02-.04-.05-.04-.09,0-.04,0-.07,.03-.09s.05-.03,.08-.03h.28c.05,0,.09,0,.12,.03,.03,.02,.05,.05,.06,.09l.37,1.07Z"/></g><rect x="6" y="100" width="15" height="15" style="fill:#ed1c24;"/><rect x="6" y="100" width="15" height="15" style="fill:none; stroke:#000; stroke-miterlimit:10; stroke-width:.5px;"/><g><path d="M12.12,107.87l.37-1.07s.04-.07,.07-.09c.03-.02,.07-.03,.12-.03h.28s.06,.01,.08,.03c.02,.02,.03,.05,.03,.09,0,.04-.01,.07-.04,.09s-.07,.03-.13,.03h-.03l.05,1.55h.04c.07,0,.12,0,.15,.03,.03,.02,.04,.05,.04,.09,0,.04-.01,.07-.03,.09-.02,.02-.05,.03-.09,.03h-.48c-.07,0-.11,0-.14-.03-.02-.02-.04-.05-.04-.1s.01-.08,.04-.09c.03-.02,.08-.03,.16-.03h.07l-.04-1.47-.34,.98s-.04,.08-.06,.1c-.03,.02-.06,.03-.11,.03-.05,0-.08,0-.11-.03-.02-.02-.04-.05-.06-.1l-.34-.98-.03,1.47h.11c.07,0,.11,0,.14,.03,.03,.02,.04,.05,.04,.09,0,.05-.01,.08-.04,.1-.02,.02-.07,.03-.14,.03h-.48s-.07,0-.09-.03c-.02-.02-.03-.05-.03-.09,0-.05,.01-.08,.04-.09,.02-.02,.07-.03,.15-.03h.04l.05-1.55h-.03c-.06,0-.11,0-.13-.03-.02-.02-.04-.05-.04-.09,0-.04,0-.07,.03-.09,.02-.02,.05-.03,.08-.03h.28c.05,0,.09,0,.12,.03,.03,.02,.05,.05,.06,.09l.37,1.07Z"/><path d="M14.6,108.47c.09,0,.14,0,.17,.03s.04,.05,.04,.09-.01,.08-.04,.1-.07,.03-.15,.03h-.81c-.07,0-.12,0-.15-.03-.02-.02-.04-.05-.04-.1s.01-.08,.04-.09c.03-.02,.08-.03,.17-.03h.25v-.57l-.57-.97h-.03c-.07,0-.12,0-.14-.03-.03-.02-.04-.05-.04-.1,0-.04,.01-.07,.03-.09,.02-.02,.05-.03,.1-.03h.47c.07,0,.11,0,.14,.03,.02,.02,.04,.05,.04,.1s-.01,.08-.04,.1c-.03,.02-.08,.03-.15,.03h-.06l.41,.74,.43-.74h-.07c-.06,0-.1,0-.13-.03-.02-.02-.04-.05-.04-.1s.01-.08,.03-.1c.02-.02,.07-.03,.16-.03h.31c.09,0,.14,0,.17,.03s.04,.05,.04,.1-.01,.08-.04,.1c-.02,.02-.07,.03-.14,.03h-.03l-.58,1v.54h.25Z"/></g><rect x="6" y="115" width="15" height="15" style="fill:#00a651;"/><rect x="6" y="115" width="15" height="15" style="fill:none; stroke:#000; stroke-miterlimit:10; stroke-width:.5px;"/><g><path d="M12.66,121.74s.03-.05,.05-.06,.05-.02,.09-.02c.04,0,.07,.01,.09,.03,.02,.02,.03,.06,.03,.13,0,.11,0,.21,0,.31,0,.1,0,.14,0,.13,0,.05,0,.09-.03,.11-.02,.02-.05,.03-.1,.03-.08,0-.12-.05-.15-.16,0-.03-.01-.06-.02-.07-.02-.09-.07-.16-.16-.21-.08-.05-.18-.08-.29-.08-.2,0-.36,.07-.49,.22-.12,.15-.18,.34-.18,.59s.06,.45,.19,.59c.12,.15,.29,.22,.49,.22,.07,0,.13,0,.2-.03s.14-.05,.2-.08c.03-.02,.07-.04,.13-.08s.09-.06,.11-.06c.04,0,.07,.01,.09,.04s.04,.05,.04,.09-.01,.07-.04,.1c-.03,.03-.08,.07-.15,.12-.1,.06-.19,.11-.29,.14-.1,.03-.2,.04-.31,.04-.28,0-.51-.1-.7-.3-.18-.2-.27-.45-.27-.76s.09-.56,.28-.76c.19-.2,.42-.3,.7-.3,.08,0,.15,0,.23,.03,.08,.02,.16,.05,.25,.08Z"/><path d="M14.6,123.47c.09,0,.14,0,.17,.03s.04,.05,.04,.09-.01,.08-.04,.1-.07,.03-.15,.03h-.81c-.07,0-.12,0-.15-.03-.02-.02-.04-.05-.04-.1s.01-.08,.04-.09c.03-.02,.08-.03,.17-.03h.25v-.57l-.57-.97h-.03c-.07,0-.12,0-.14-.03-.03-.02-.04-.05-.04-.1,0-.04,.01-.07,.03-.09,.02-.02,.05-.03,.1-.03h.47c.07,0,.11,0,.14,.03,.02,.02,.04,.05,.04,.1s-.01,.08-.04,.1c-.03,.02-.08,.03-.15,.03h-.06l.41,.74,.43-.74h-.07c-.06,0-.1,0-.13-.03-.02-.02-.04-.05-.04-.1s.01-.08,.03-.1c.02-.02,.07-.03,.16-.03h.31c.09,0,.14,0,.17,.03s.04,.05,.04,.1-.01,.08-.04,.1c-.02,.02-.07,.03-.14,.03h-.03l-.58,1v.54h.25Z"/></g><rect x="6" y="130" width="15" height="15" style="fill:#363639;"/><rect x="6" y="130" width="15" height="15" style="fill:none; stroke:#000; stroke-miterlimit:10; stroke-width:.5px;"/><g><path d="M11.44,136.74s.03-.05,.05-.06,.05-.02,.09-.02c.04,0,.07,.01,.09,.03,.02,.02,.03,.06,.03,.13,0,.11,0,.21,0,.31,0,.1,0,.14,0,.13,0,.05,0,.09-.03,.11-.02,.02-.05,.03-.1,.03-.08,0-.12-.05-.15-.16,0-.03-.01-.06-.02-.07-.02-.09-.07-.16-.16-.21-.08-.05-.18-.08-.29-.08-.2,0-.36,.07-.49,.22s-.18,.34-.18,.59,.06,.45,.19,.59c.12,.15,.29,.22,.49,.22,.07,0,.13,0,.2-.03s.13-.05,.2-.08c.03-.02,.07-.04,.13-.08,.05-.04,.09-.06,.11-.06,.04,0,.07,.01,.09,.04s.04,.05,.04,.09-.01,.07-.04,.1c-.03,.03-.08,.07-.15,.12-.1,.06-.19,.11-.29,.14-.1,.03-.2,.04-.31,.04-.28,0-.51-.1-.7-.3-.18-.2-.28-.45-.28-.76s.09-.56,.28-.76c.19-.2,.42-.3,.7-.3,.08,0,.15,0,.23,.03,.08,.02,.16,.05,.25,.08Z"/><path d="M13.01,137.87l.37-1.07s.04-.07,.07-.09c.03-.02,.07-.03,.12-.03h.28s.06,.01,.08,.03c.02,.02,.03,.05,.03,.09,0,.04-.01,.07-.04,.09s-.07,.03-.13,.03h-.03l.05,1.55h.04c.07,0,.12,0,.15,.03,.03,.02,.04,.05,.04,.09,0,.04-.01,.07-.03,.09-.02,.02-.05,.03-.09,.03h-.48c-.07,0-.11,0-.14-.03-.02-.02-.04-.05-.04-.1s.01-.08,.04-.09c.03-.02,.08-.03,.16-.03h.07l-.04-1.47-.34,.98s-.04,.08-.06,.1c-.03,.02-.06,.03-.11,.03-.05,0-.08,0-.11-.03-.02-.02-.04-.05-.06-.1l-.34-.98-.03,1.47h.11c.07,0,.11,0,.14,.03,.03,.02,.04,.05,.04,.09,0,.05-.01,.08-.04,.1-.02,.02-.07,.03-.14,.03h-.48s-.07,0-.09-.03c-.02-.02-.03-.05-.03-.09,0-.05,.01-.08,.04-.09,.02-.02,.07-.03,.15-.03h.04l.05-1.55h-.03c-.06,0-.11,0-.13-.03-.02-.02-.04-.05-.04-.09,0-.04,0-.07,.03-.09,.02-.02,.05-.03,.08-.03h.28c.05,0,.09,0,.12,.03,.03,.02,.05,.05,.06,.09l.37,1.07Z"/><path d="M15.48,138.47c.09,0,.14,0,.17,.03s.04,.05,.04,.09-.01,.08-.04,.1-.07,.03-.15,.03h-.81c-.07,0-.12,0-.15-.03-.02-.02-.04-.05-.04-.1s.01-.08,.04-.09c.03-.02,.08-.03,.17-.03h.25v-.57l-.57-.97h-.03c-.07,0-.12,0-.14-.03-.03-.02-.04-.05-.04-.1,0-.04,.01-.07,.03-.09,.02-.02,.05-.03,.1-.03h.47c.07,0,.11,0,.14,.03,.02,.02,.04,.05,.04,.1s-.01,.08-.04,.1c-.03,.02-.08,.03-.15,.03h-.06l.41,.74,.43-.74h-.07c-.06,0-.1,0-.13-.03-.02-.02-.04-.05-.04-.1s.01-.08,.03-.1c.02-.02,.07-.03,.16-.03h.31c.09,0,.14,0,.17,.03s.04,.05,.04,.1-.01,.08-.04,.1c-.02,.02-.07,.03-.14,.03h-.03l-.58,1v.54h.25Z"/></g><rect x="6" y="145" width="15" height="15" style="fill:#231f20;"/><rect x="6" y="145" width="15" height="15" style="fill:none; stroke:#000; stroke-miterlimit:10; stroke-width:.5px;"/><path d="M12.99,153.47h.11c.07,0,.11,0,.14,.03,.03,.02,.04,.05,.04,.09,0,.05-.01,.08-.04,.1-.02,.02-.07,.03-.14,.03h-.58s-.07-.01-.09-.03c-.02-.02-.03-.05-.03-.09s.01-.07,.03-.09c.02-.02,.06-.03,.11-.03h.16v-1.54h-.11c-.09,0-.14,0-.17-.03-.02-.02-.04-.05-.04-.1,0-.04,0-.07,.03-.09,.02-.02,.05-.03,.09-.03h.58c.07,0,.11,0,.14,.03,.02,.02,.04,.05,.04,.1s-.02,.08-.05,.1c-.03,.02-.09,.03-.17,.03h-.08v.7l.71-.7h-.06c-.06,0-.1,0-.12-.03-.03-.02-.04-.05-.04-.09s0-.08,.03-.09c.02-.02,.05-.03,.09-.03h.5s.07,.01,.09,.03c.02,.02,.03,.05,.03,.09,0,.04-.01,.08-.04,.1-.03,.02-.07,.03-.14,.03h-.02l-.66,.64c.1,.02,.19,.08,.29,.19,.09,.11,.24,.34,.43,.71h.03c.07,0,.12,0,.14,.03,.02,.02,.04,.05,.04,.09,0,.04,0,.07-.03,.09-.02,.02-.05,.03-.09,.03h-.16s-.06,0-.08-.01-.03-.03-.05-.05c-.01-.02-.07-.13-.19-.35l-.07-.12c-.07-.13-.14-.23-.21-.3-.07-.07-.15-.11-.23-.12l-.19,.18v.54Z"/></svg>