<?xml version="1.0" encoding="UTF-8"?><svg id="a" xmlns="http://www.w3.org/2000/svg" viewBox="0 0 200 100"><rect x="25" y="79" width="15" height="15"/><rect x="25" y="79" width="15" height="15" style="fill:none; stroke:#fff; stroke-miterlimit:10; stroke-width:.5px;"/><rect x="40" y="79" width="15" height="15"/><rect x="40" y="79" width="15" height="15" style="fill:none; stroke:#fff; stroke-miterlimit:10; stroke-width:.5px;"/><rect x="55" y="79" width="15" height="15" style="fill:#100906;"/><rect x="55" y="79" width="15" height="15" style="fill:none; stroke:#fff; stroke-miterlimit:10; stroke-width:.5px;"/><rect x="70" y="79" width="15" height="15" style="fill:#28211f;"/><rect x="70" y="79" width="15" height="15" style="fill:none; stroke:#fff; stroke-miterlimit:10; stroke-width:.5px;"/><rect x="85" y="79" width="15" height="15" style="fill:#3c3533;"/><rect x="85" y="79" width="15" height="15" style="fill:none; stroke:#fff; stroke-miterlimit:10; stroke-width:.5px;"/><rect x="100" y="79" width="15" height="15" style="fill:#524b48;"/><rect x="100" y="79" width="15" height="15" style="fill:none; stroke:#fff; stroke-miterlimit:10; stroke-width:.5px;"/><rect x="115" y="79" width="15" height="15" style="fill:#6c6361;"/><rect x="115" y="79" width="15" height="15" style="fill:none; stroke:#fff; stroke-miterlimit:10; stroke-width:.5px;"/><rect x="130" y="79" width="15" height="15" style="fill:#88817f;"/><rect x="130" y="79" width="15" height="15" style="fill:none; stroke:#fff; stroke-miterlimit:10; stroke-width:.5px;"/><rect x="145" y="79" width="15" height="15" style="fill:#a9a3a1;"/><rect x="145" y="79" width="15" height="15" style="fill:none; stroke:#fff; stroke-miterlimit:10; stroke-width:.5px;"/><rect x="160" y="79" width="15" height="15" style="fill:#cecac8;"/><rect x="160" y="79" width="15" height="15" style="fill:none; stroke:#fff; stroke-miterlimit:10; stroke-width:.5px;"/></svg>