<?xml version="1.0" encoding="UTF-8"?><svg id="a" xmlns="http://www.w3.org/2000/svg" viewBox="0 0 100 100"><path d="M67,27V0m6,33h27" style="fill:none; stroke:#fff; stroke-miterlimit:10; stroke-width:1.25px;"/><path d="M67,27V0m6,33h27" style="fill:none; stroke:#000; stroke-miterlimit:10; stroke-width:.25px;"/><circle cx="49" cy="13.5" r="6" style="fill:none; stroke:#fff; stroke-miterlimit:10; stroke-width:1.25px;"/><line x1="40" y1="13.5" x2="58" y2="13.5" style="fill:none; stroke:#fff; stroke-miterlimit:10; stroke-width:1.25px;"/><line x1="49" y1="4.5" x2="49" y2="22.5" style="fill:none; stroke:#fff; stroke-miterlimit:10; stroke-width:1.25px;"/><circle cx="49" cy="13.5" r="3" style="fill:none; stroke:#fff; stroke-miterlimit:10; stroke-width:1.25px;"/><circle cx="49" cy="13.5" r="6" style="fill:none; stroke:#000; stroke-miterlimit:10; stroke-width:.25px;"/><line x1="40" y1="13.5" x2="58" y2="13.5" style="fill:none; stroke:#000; stroke-miterlimit:10; stroke-width:.25px;"/><line x1="49" y1="4.5" x2="49" y2="22.5" style="fill:none; stroke:#000; stroke-miterlimit:10; stroke-width:.25px;"/><path d="M52,13.5c0,1.66-1.34,3-3,3s-3-1.34-3-3,1.34-3,3-3,3,1.34,3,3"/><line x1="46" y1="13.5" x2="52" y2="13.5" style="fill:none; stroke:#fff; stroke-miterlimit:10; stroke-width:.25px;"/><line x1="49" y1="10.5" x2="49" y2="16.5" style="fill:none; stroke:#fff; stroke-miterlimit:10; stroke-width:.25px;"/><circle cx="86.5" cy="51" r="6" style="fill:none; stroke:#fff; stroke-miterlimit:10; stroke-width:1.25px;"/><line x1="77.5" y1="51" x2="95.5" y2="51" style="fill:none; stroke:#fff; stroke-miterlimit:10; stroke-width:1.25px;"/><line x1="86.5" y1="42" x2="86.5" y2="60" style="fill:none; stroke:#fff; stroke-miterlimit:10; stroke-width:1.25px;"/><circle cx="86.5" cy="51" r="3" style="fill:none; stroke:#fff; stroke-miterlimit:10; stroke-width:1.25px;"/><circle cx="86.5" cy="51" r="6" style="fill:none; stroke:#000; stroke-miterlimit:10; stroke-width:.25px;"/><line x1="77.5" y1="51" x2="95.5" y2="51" style="fill:none; stroke:#000; stroke-miterlimit:10; stroke-width:.25px;"/><line x1="86.5" y1="42" x2="86.5" y2="60" style="fill:none; stroke:#000; stroke-miterlimit:10; stroke-width:.25px;"/><path d="M89.5,51c0,1.66-1.34,3-3,3s-3-1.34-3-3,1.34-3,3-3,3,1.34,3,3"/><line x1="83.5" y1="51" x2="89.5" y2="51" style="fill:none; stroke:#fff; stroke-miterlimit:10; stroke-width:.25px;"/><line x1="86.5" y1="48" x2="86.5" y2="54" style="fill:none; stroke:#fff; stroke-miterlimit:10; stroke-width:.25px;"/></svg>