<?xml version="1.0" encoding="UTF-8"?><svg id="a" xmlns="http://www.w3.org/2000/svg" xmlns:xlink="http://www.w3.org/1999/xlink" viewBox="0 0 100 100"><defs><style>.al,.am,.an,.ao,.ap{fill:none;}.aq{fill:#fff;}.am{stroke-width:1.25px;}.am,.an,.ao,.ap{stroke-miterlimit:10;}.am,.ao{stroke:#fff;}.an{stroke-width:.3px;}.an,.ap{stroke:#000;}.ar{clip-path:url(#v);}.as{clip-path:url(#u);}.at{clip-path:url(#t);}.au{clip-path:url(#y);}.av{clip-path:url(#x);}.aw{clip-path:url(#w);}.ax{clip-path:url(#c);}.ay{clip-path:url(#b);}.b`{clip-path:url(#f);}.ba{clip-path:url(#e);}.bb{clip-path:url(#d);}.bc{clip-path:url(#n);}.bd{clip-path:url(#m);}.be{clip-path:url(#l);}.bf{clip-path:url(#k);}.bg{clip-path:url(#j);}.bh{clip-path:url(#i);}.bi{clip-path:url(#h);}.bj{clip-path:url(#g);}.bk{clip-path:url(#s);}.bl{clip-path:url(#r);}.bm{clip-path:url(#q);}.bn{clip-path:url(#p);}.bo{clip-path:url(#o);}.bp{clip-path:url(#ah);}.bq{clip-path:url(#ag);}.br{clip-path:url(#ab);}.bs{clip-path:url(#aa);}.bt{clip-path:url(#ak);}.bu{clip-path:url(#ac);}.bv{clip-path:url(#af);}.bw{clip-path:url(#ae);}.bx{clip-path:url(#aj);}.by{clip-path:url(#ai);}.c`{clip-path:url(#ad);}.ca{clip-path:url(#a`);}.ao,.ap{stroke-width:.25px;}</style><clipPath id="b"><polygon points="14.5 13.5 31.48 12.71 31.48 14.28 14.5 13.5" style="fill:none;"/></clipPath><clipPath id="c"><polygon points="14.48 13.67 31.35 15.84 31.07 17.39 14.48 13.67" style="fill:none;"/></clipPath><clipPath id="d"><polygon points="14.44 13.84 30.67 18.91 30.13 20.38 14.44 13.84" style="fill:none;"/></clipPath><clipPath id="e"><polygon points="14.37 14 29.47 21.81 28.68 23.17 14.37 14" style="fill:none;"/></clipPath><clipPath id="f"><polygon points="14.27 14.14 27.78 24.45 26.77 25.66 14.27 14.14" style="fill:none;"/></clipPath><clipPath id="g"><polygon points="14.14 14.26 25.66 26.77 24.46 27.78 14.14 14.26" style="fill:none;"/></clipPath><clipPath id="h"><polygon points="14 14.36 23.17 28.68 21.81 29.46 14 14.36" style="fill:none;"/></clipPath><clipPath id="i"><polygon points="13.84 14.44 20.39 30.13 18.91 30.66 13.84 14.44" style="fill:none;"/></clipPath><clipPath id="j"><polygon points="13.67 14.48 17.4 31.07 15.85 31.34 13.67 14.48" style="fill:none;"/></clipPath><clipPath id="k"><polygon points="13.5 14.5 14.28 31.48 12.72 31.48 13.5 14.5" style="fill:none;"/></clipPath><clipPath id="l"><polygon points="13.33 14.48 11.15 31.34 9.6 31.07 13.33 14.48" style="fill:none;"/></clipPath><clipPath id="m"><polygon points="13.16 14.44 8.09 30.66 6.61 30.13 13.16 14.44" style="fill:none;"/></clipPath><clipPath id="n"><polygon points="13 14.36 5.19 29.46 3.83 28.68 13 14.36" style="fill:none;"/></clipPath><clipPath id="o"><polygon points="12.86 14.26 2.54 27.78 1.34 26.77 12.86 14.26" style="fill:none;"/></clipPath><clipPath id="p"><polygon points="12.73 14.14 .23 25.66 -.78 24.45 12.73 14.14" style="fill:none;"/></clipPath><clipPath id="q"><polygon points="12.63 14 -1.68 23.17 -2.47 21.81 12.63 14" style="fill:none;"/></clipPath><clipPath id="r"><polygon points="12.56 13.84 -3.13 20.38 -3.67 18.91 12.56 13.84" style="fill:none;"/></clipPath><clipPath id="s"><polygon points="12.52 13.67 -4.07 17.39 -4.35 15.84 12.52 13.67" style="fill:none;"/></clipPath><clipPath id="t"><polygon points="12.5 13.5 -4.48 14.28 -4.48 12.71 12.5 13.5" style="fill:none;"/></clipPath><clipPath id="u"><polygon points="12.52 13.32 -4.35 11.15 -4.07 9.6 12.52 13.32" style="fill:none;"/></clipPath><clipPath id="v"><polygon points="12.56 13.15 -3.67 8.08 -3.13 6.61 12.56 13.15" style="fill:none;"/></clipPath><clipPath id="w"><polygon points="12.63 13 -2.47 5.18 -1.68 3.82 12.63 13" style="fill:none;"/></clipPath><clipPath id="x"><polygon points="12.73 12.85 -.78 2.54 .23 1.33 12.73 12.85" style="fill:none;"/></clipPath><clipPath id="y"><polygon points="12.86 12.73 1.34 .23 2.54 -.78 12.86 12.73" style="fill:none;"/></clipPath><clipPath id="a`"><polygon points="13 12.63 3.83 -1.69 5.19 -2.47 13 12.63" style="fill:none;"/></clipPath><clipPath id="aa"><polygon points="13.16 12.56 6.61 -3.13 8.09 -3.67 13.16 12.56" style="fill:none;"/></clipPath><clipPath id="ab"><polygon points="13.33 12.51 9.6 -4.08 11.15 -4.35 13.33 12.51" style="fill:none;"/></clipPath><clipPath id="ac"><polygon points="13.5 12.5 12.72 -4.49 14.28 -4.49 13.5 12.5" style="fill:none;"/></clipPath><clipPath id="ad"><polygon points="13.67 12.51 15.85 -4.35 17.4 -4.08 13.67 12.51" style="fill:none;"/></clipPath><clipPath id="ae"><polygon points="13.84 12.56 18.91 -3.67 20.39 -3.13 13.84 12.56" style="fill:none;"/></clipPath><clipPath id="af"><polygon points="14 12.63 21.81 -2.47 23.17 -1.69 14 12.63" style="fill:none;"/></clipPath><clipPath id="ag"><polygon points="14.14 12.73 24.46 -.78 25.66 .23 14.14 12.73" style="fill:none;"/></clipPath><clipPath id="ah"><polygon points="14.27 12.85 26.77 1.33 27.78 2.54 14.27 12.85" style="fill:none;"/></clipPath><clipPath id="ai"><polygon points="14.37 13 28.68 3.82 29.47 5.18 14.37 13" style="fill:none;"/></clipPath><clipPath id="aj"><polygon points="14.44 13.15 30.13 6.61 30.67 8.08 14.44 13.15" style="fill:none;"/></clipPath><clipPath id="ak"><polygon points="14.48 13.32 31.07 9.6 31.35 11.15 14.48 13.32" style="fill:none;"/></clipPath></defs><path d="M33,27V0m-6,33H0" style="fill:none; stroke:#fff; stroke-miterlimit:10; stroke-width:1.25px;"/><path d="M33,27V0m-6,33H0" style="fill:none; stroke:#000; stroke-miterlimit:10; stroke-width:.25px;"/><circle cx="51" cy="13.5" r="6" style="fill:none; stroke:#fff; stroke-miterlimit:10; stroke-width:1.25px;"/><line x1="42" y1="13.5" x2="60" y2="13.5" style="fill:none; stroke:#fff; stroke-miterlimit:10; stroke-width:1.25px;"/><line x1="51" y1="4.5" x2="51" y2="22.5" style="fill:none; stroke:#fff; stroke-miterlimit:10; stroke-width:1.25px;"/><circle cx="51" cy="13.5" r="3" style="fill:none; stroke:#fff; stroke-miterlimit:10; stroke-width:1.25px;"/><circle cx="51" cy="13.5" r="6" style="fill:none; stroke:#000; stroke-miterlimit:10; stroke-width:.25px;"/><line x1="42" y1="13.5" x2="60" y2="13.5" style="fill:none; stroke:#000; stroke-miterlimit:10; stroke-width:.25px;"/><line x1="51" y1="4.5" x2="51" y2="22.5" style="fill:none; stroke:#000; stroke-miterlimit:10; stroke-width:.25px;"/><path d="M54,13.5c0,1.66-1.34,3-3,3s-3-1.34-3-3,1.34-3,3-3,3,1.34,3,3"/><line x1="48" y1="13.5" x2="54" y2="13.5" style="fill:none; stroke:#fff; stroke-miterlimit:10; stroke-width:.25px;"/><line x1="51" y1="10.5" x2="51" y2="16.5" style="fill:none; stroke:#fff; stroke-miterlimit:10; stroke-width:.25px;"/><circle cx="13.5" cy="51" r="6" style="fill:none; stroke:#fff; stroke-miterlimit:10; stroke-width:1.25px;"/><line x1="4.5" y1="51" x2="22.5" y2="51" style="fill:none; stroke:#fff; stroke-miterlimit:10; stroke-width:1.25px;"/><line x1="13.5" y1="42" x2="13.5" y2="60" style="fill:none; stroke:#fff; stroke-miterlimit:10; stroke-width:1.25px;"/><circle cx="13.5" cy="51" r="3" style="fill:none; stroke:#fff; stroke-miterlimit:10; stroke-width:1.25px;"/><circle cx="13.5" cy="51" r="6" style="fill:none; stroke:#000; stroke-miterlimit:10; stroke-width:.25px;"/><line x1="4.5" y1="51" x2="22.5" y2="51" style="fill:none; stroke:#000; stroke-miterlimit:10; stroke-width:.25px;"/><line x1="13.5" y1="42" x2="13.5" y2="60" style="fill:none; stroke:#000; stroke-miterlimit:10; stroke-width:.25px;"/><path d="M16.5,51c0,1.66-1.34,3-3,3s-3-1.34-3-3,1.34-3,3-3,3,1.34,3,3"/><line x1="10.5" y1="51" x2="16.5" y2="51" style="fill:none; stroke:#fff; stroke-miterlimit:10; stroke-width:.25px;"/><line x1="13.5" y1="48" x2="13.5" y2="54" style="fill:none; stroke:#fff; stroke-miterlimit:10; stroke-width:.25px;"/><path d="M22.5,13.5c0,4.97-4.03,9-9,9S4.5,18.47,4.5,13.5,8.53,4.5,13.5,4.5s9,4.03,9,9" style="fill:#fff;"/><circle cx="13.5" cy="13.5" r="9" style="fill:none; stroke:#000; stroke-miterlimit:10; stroke-width:.3px;"/><g style="clip-path:url(#b);"><path d="M22.5,13.5c0,4.97-4.03,9-9,9S4.5,18.47,4.5,13.5,8.53,4.5,13.5,4.5s9,4.03,9,9"/></g><g style="clip-path:url(#c);"><path d="M22.36,15.06c-.86,4.9-5.53,8.16-10.43,7.3-4.9-.86-8.16-5.53-7.3-10.43,.86-4.9,5.53-8.16,10.43-7.3,4.89,.86,8.16,5.53,7.3,10.43"/></g><g style="clip-path:url(#d);"><path d="M21.96,16.57c-1.7,4.67-6.86,7.08-11.53,5.38-4.67-1.7-7.08-6.86-5.38-11.53,1.7-4.67,6.86-7.08,11.53-5.38,4.67,1.7,7.08,6.86,5.38,11.53"/></g><g style="clip-path:url(#e);"><path d="M21.29,18c-2.49,4.31-7.99,5.78-12.29,3.29-4.31-2.49-5.78-7.99-3.29-12.29,2.49-4.3,7.99-5.78,12.29-3.29,4.3,2.49,5.78,7.99,3.29,12.29"/></g><g style="clip-path:url(#f);"><path d="M20.39,19.28c-3.2,3.81-8.87,4.3-12.68,1.11-3.81-3.2-4.3-8.87-1.11-12.68,3.19-3.81,8.87-4.31,12.68-1.11,3.81,3.19,4.3,8.87,1.11,12.68"/></g><g style="clip-path:url(#g);"><path d="M19.29,20.39c-3.81,3.2-9.48,2.7-12.68-1.11-3.2-3.81-2.7-9.49,1.11-12.68,3.81-3.2,9.48-2.7,12.68,1.11,3.19,3.81,2.7,9.48-1.11,12.68"/></g><g style="clip-path:url(#h);"><path d="M18,21.29c-4.31,2.49-9.81,1.01-12.29-3.29-2.49-4.3-1.01-9.81,3.29-12.29,4.3-2.49,9.81-1.01,12.29,3.29,2.49,4.3,1.01,9.81-3.29,12.29"/></g><g style="clip-path:url(#i);"><path d="M16.58,21.95c-4.67,1.7-9.84-.71-11.53-5.38-1.7-4.67,.71-9.83,5.38-11.54,4.67-1.7,9.83,.71,11.53,5.38,1.7,4.67-.71,9.83-5.38,11.53"/></g><g style="clip-path:url(#j);"><path d="M15.06,22.36c-4.9,.86-9.56-2.41-10.43-7.3-.86-4.9,2.4-9.56,7.3-10.43,4.9-.86,9.56,2.41,10.43,7.3,.86,4.9-2.41,9.56-7.3,10.43"/></g><g style="clip-path:url(#k);"><path d="M13.5,22.5c-4.97,0-9-4.03-9-9S8.53,4.5,13.5,4.5s9,4.03,9,9-4.03,9-9,9"/></g><g style="clip-path:url(#l);"><path d="M11.94,22.36c-4.89-.86-8.16-5.53-7.3-10.43,.86-4.9,5.53-8.16,10.43-7.3,4.89,.86,8.16,5.53,7.3,10.43-.86,4.9-5.53,8.16-10.43,7.3"/></g><g style="clip-path:url(#m);"><path d="M10.42,21.95c-4.67-1.7-7.08-6.86-5.38-11.53,1.7-4.67,6.86-7.08,11.53-5.38,4.67,1.7,7.08,6.86,5.38,11.54-1.7,4.67-6.86,7.08-11.53,5.38"/></g><g style="clip-path:url(#n);"><path d="M9,21.29c-4.3-2.48-5.78-7.99-3.29-12.29,2.49-4.3,7.99-5.78,12.29-3.29,4.31,2.49,5.78,7.99,3.29,12.29-2.48,4.3-7.99,5.78-12.29,3.29"/></g><g style="clip-path:url(#o);"><path d="M7.71,20.39c-3.81-3.19-4.3-8.87-1.11-12.68,3.19-3.81,8.87-4.3,12.68-1.11,3.81,3.19,4.3,8.87,1.11,12.68-3.19,3.81-8.87,4.3-12.68,1.11"/></g><g style="clip-path:url(#p);"><path d="M6.61,19.28c-3.19-3.81-2.7-9.48,1.11-12.68,3.81-3.2,9.48-2.7,12.68,1.11,3.19,3.81,2.7,9.48-1.11,12.68-3.81,3.2-9.48,2.7-12.68-1.11"/></g><g style="clip-path:url(#q);"><path d="M5.71,18c-2.48-4.3-1.01-9.81,3.29-12.29,4.31-2.49,9.81-1.01,12.29,3.29,2.49,4.31,1.01,9.81-3.29,12.29-4.3,2.49-9.81,1.01-12.29-3.29"/></g><g style="clip-path:url(#r);"><path d="M5.04,16.57c-1.7-4.67,.71-9.83,5.38-11.53,4.67-1.7,9.84,.71,11.53,5.38,1.7,4.67-.71,9.83-5.38,11.53-4.67,1.7-9.83-.71-11.53-5.38"/></g><g style="clip-path:url(#s);"><path d="M4.64,15.06c-.86-4.89,2.4-9.56,7.3-10.43,4.89-.86,9.56,2.4,10.43,7.3,.86,4.9-2.41,9.56-7.3,10.43-4.89,.86-9.56-2.41-10.43-7.3"/></g><g style="clip-path:url(#t);"><path d="M4.5,13.5c0-4.97,4.03-9,9-9s9,4.03,9,9-4.03,9-9,9S4.5,18.47,4.5,13.5"/></g><g style="clip-path:url(#u);"><path d="M4.64,11.93c.86-4.89,5.53-8.16,10.43-7.3,4.89,.86,8.16,5.53,7.3,10.43-.86,4.9-5.53,8.16-10.43,7.3-4.89-.86-8.16-5.53-7.3-10.43"/></g><g style="clip-path:url(#v);"><path d="M5.04,10.42c1.7-4.67,6.86-7.08,11.53-5.38,4.67,1.7,7.08,6.86,5.38,11.53-1.7,4.67-6.86,7.08-11.53,5.38-4.67-1.7-7.08-6.86-5.38-11.54"/></g><g style="clip-path:url(#w);"><path d="M5.71,9c2.48-4.3,7.99-5.78,12.29-3.29,4.31,2.49,5.78,7.99,3.29,12.29-2.49,4.31-7.99,5.78-12.29,3.29-4.3-2.49-5.78-7.99-3.29-12.29"/></g><g style="clip-path:url(#x);"><path d="M6.61,7.71c3.19-3.81,8.87-4.3,12.68-1.11,3.81,3.2,4.3,8.87,1.11,12.68-3.19,3.81-8.87,4.3-12.68,1.11-3.81-3.19-4.3-8.87-1.11-12.68"/></g><g style="clip-path:url(#y);"><path d="M7.71,6.6c3.81-3.19,9.48-2.7,12.68,1.11,3.19,3.81,2.7,9.49-1.11,12.68-3.81,3.2-9.48,2.7-12.68-1.11-3.19-3.81-2.7-9.48,1.11-12.68"/></g><g style="clip-path:url(#a`);"><path d="M9,5.7c4.3-2.48,9.81-1.01,12.29,3.29,2.49,4.3,1.01,9.81-3.29,12.29-4.31,2.49-9.81,1.01-12.29-3.29-2.49-4.3-1.01-9.81,3.29-12.29"/></g><g style="clip-path:url(#aa);"><path d="M10.42,5.04c4.67-1.7,9.84,.71,11.53,5.38,1.7,4.67-.71,9.83-5.38,11.54-4.67,1.7-9.83-.71-11.53-5.38-1.7-4.67,.71-9.83,5.38-11.54"/></g><g style="clip-path:url(#ab);"><path d="M11.94,4.63c4.89-.86,9.56,2.41,10.43,7.3,.86,4.9-2.41,9.56-7.3,10.43-4.89,.86-9.56-2.41-10.43-7.3-.86-4.9,2.41-9.56,7.3-10.43"/></g><g style="clip-path:url(#ac);"><path d="M13.5,4.5c4.97,0,9,4.03,9,9s-4.03,9-9,9S4.5,18.47,4.5,13.5,8.53,4.5,13.5,4.5"/></g><g style="clip-path:url(#ad);"><path d="M15.06,4.63c4.89,.86,8.16,5.53,7.3,10.43-.86,4.9-5.53,8.16-10.43,7.3-4.89-.86-8.16-5.53-7.3-10.43,.86-4.9,5.53-8.16,10.43-7.3"/></g><g style="clip-path:url(#ae);"><path d="M16.58,5.04c4.67,1.7,7.08,6.87,5.38,11.54-1.7,4.67-6.86,7.08-11.53,5.38-4.67-1.7-7.08-6.86-5.38-11.54,1.7-4.67,6.86-7.08,11.53-5.38"/></g><g style="clip-path:url(#af);"><path d="M18,5.7c4.3,2.49,5.78,7.99,3.29,12.29-2.48,4.3-7.99,5.78-12.29,3.29-4.31-2.49-5.78-7.99-3.29-12.29,2.48-4.3,7.99-5.78,12.29-3.29"/></g><g style="clip-path:url(#ag);"><path d="M19.29,6.6c3.81,3.2,4.3,8.87,1.11,12.68-3.19,3.81-8.87,4.3-12.68,1.11-3.81-3.19-4.3-8.87-1.11-12.68,3.19-3.81,8.87-4.3,12.68-1.11"/></g><g style="clip-path:url(#ah);"><path d="M20.39,7.71c3.19,3.81,2.7,9.49-1.11,12.68-3.81,3.2-9.48,2.7-12.68-1.11-3.19-3.81-2.7-9.48,1.11-12.68,3.81-3.2,9.48-2.7,12.68,1.11"/></g><g style="clip-path:url(#ai);"><path d="M21.29,9c2.48,4.31,1.01,9.81-3.29,12.29-4.3,2.49-9.81,1.01-12.29-3.29-2.49-4.3-1.01-9.81,3.29-12.29,4.3-2.49,9.81-1.01,12.29,3.29"/></g><g style="clip-path:url(#aj);"><path d="M21.96,10.42c1.7,4.67-.71,9.84-5.38,11.54-4.67,1.7-9.83-.71-11.53-5.38-1.7-4.67,.71-9.83,5.38-11.53,4.67-1.7,9.83,.71,11.53,5.38"/></g><g style="clip-path:url(#ak);"><path d="M22.36,11.93c.86,4.9-2.41,9.56-7.3,10.43-4.89,.86-9.56-2.4-10.43-7.3-.86-4.89,2.41-9.56,7.3-10.43,4.89-.86,9.56,2.41,10.43,7.3"/></g></svg>