<?xml version="1.0" encoding="UTF-8"?><svg id="a" xmlns="http://www.w3.org/2000/svg" viewBox="0 0 100 100"><path d="M33,73v27m-6-33H0" style="fill:none; stroke:#fff; stroke-miterlimit:10; stroke-width:1.25px;"/><path d="M33,73v27m-6-33H0" style="fill:none; stroke:#000; stroke-miterlimit:10; stroke-width:.25px;"/><circle cx="51" cy="86.5" r="6" style="fill:none; stroke:#fff; stroke-miterlimit:10; stroke-width:1.25px;"/><line x1="42" y1="86.5" x2="60" y2="86.5" style="fill:none; stroke:#fff; stroke-miterlimit:10; stroke-width:1.25px;"/><line x1="51" y1="77.5" x2="51" y2="95.5" style="fill:none; stroke:#fff; stroke-miterlimit:10; stroke-width:1.25px;"/><circle cx="51" cy="86.5" r="3" style="fill:none; stroke:#fff; stroke-miterlimit:10; stroke-width:1.25px;"/><circle cx="51" cy="86.5" r="6" style="fill:none; stroke:#000; stroke-miterlimit:10; stroke-width:.25px;"/><line x1="42" y1="86.5" x2="60" y2="86.5" style="fill:none; stroke:#000; stroke-miterlimit:10; stroke-width:.25px;"/><line x1="51" y1="77.5" x2="51" y2="95.5" style="fill:none; stroke:#000; stroke-miterlimit:10; stroke-width:.25px;"/><path d="M54,86.5c0,1.66-1.34,3-3,3s-3-1.34-3-3,1.34-3,3-3,3,1.34,3,3"/><line x1="48" y1="86.5" x2="54" y2="86.5" style="fill:none; stroke:#fff; stroke-miterlimit:10; stroke-width:.25px;"/><line x1="51" y1="83.5" x2="51" y2="89.5" style="fill:none; stroke:#fff; stroke-miterlimit:10; stroke-width:.25px;"/><circle cx="13.5" cy="49" r="6" style="fill:none; stroke:#fff; stroke-miterlimit:10; stroke-width:1.25px;"/><line x1="4.5" y1="49" x2="22.5" y2="49" style="fill:none; stroke:#fff; stroke-miterlimit:10; stroke-width:1.25px;"/><line x1="13.5" y1="40" x2="13.5" y2="58" style="fill:none; stroke:#fff; stroke-miterlimit:10; stroke-width:1.25px;"/><circle cx="13.5" cy="49" r="3" style="fill:none; stroke:#fff; stroke-miterlimit:10; stroke-width:1.25px;"/><circle cx="13.5" cy="49" r="6" style="fill:none; stroke:#000; stroke-miterlimit:10; stroke-width:.25px;"/><line x1="4.5" y1="49" x2="22.5" y2="49" style="fill:none; stroke:#000; stroke-miterlimit:10; stroke-width:.25px;"/><line x1="13.5" y1="40" x2="13.5" y2="58" style="fill:none; stroke:#000; stroke-miterlimit:10; stroke-width:.25px;"/><path d="M16.5,49c0,1.66-1.34,3-3,3s-3-1.34-3-3,1.34-3,3-3,3,1.34,3,3"/><line x1="10.5" y1="49" x2="16.5" y2="49" style="fill:none; stroke:#fff; stroke-miterlimit:10; stroke-width:.25px;"/><line x1="13.5" y1="46" x2="13.5" y2="52" style="fill:none; stroke:#fff; stroke-miterlimit:10; stroke-width:.25px;"/></svg>