<?xml version="1.0" encoding="UTF-8"?><svg id="a" xmlns="http://www.w3.org/2000/svg" xmlns:xlink="http://www.w3.org/1999/xlink" viewBox="0 0 100 100"><defs><style>.al,.am,.an,.ao,.ap{fill:none;}.aq{fill:#fff;}.am{stroke-width:1.25px;}.am,.an,.ao,.ap{stroke-miterlimit:10;}.am,.ao{stroke:#fff;}.an{stroke-width:.3px;}.an,.ap{stroke:#000;}.ar{clip-path:url(#v);}.as{clip-path:url(#u);}.at{clip-path:url(#t);}.au{clip-path:url(#y);}.av{clip-path:url(#x);}.aw{clip-path:url(#w);}.ax{clip-path:url(#c);}.ay{clip-path:url(#b);}.b`{clip-path:url(#f);}.ba{clip-path:url(#e);}.bb{clip-path:url(#d);}.bc{clip-path:url(#n);}.bd{clip-path:url(#m);}.be{clip-path:url(#l);}.bf{clip-path:url(#k);}.bg{clip-path:url(#j);}.bh{clip-path:url(#i);}.bi{clip-path:url(#h);}.bj{clip-path:url(#g);}.bk{clip-path:url(#s);}.bl{clip-path:url(#r);}.bm{clip-path:url(#q);}.bn{clip-path:url(#p);}.bo{clip-path:url(#o);}.bp{clip-path:url(#ah);}.bq{clip-path:url(#ag);}.br{clip-path:url(#ab);}.bs{clip-path:url(#aa);}.bt{clip-path:url(#ak);}.bu{clip-path:url(#ac);}.bv{clip-path:url(#af);}.bw{clip-path:url(#ae);}.bx{clip-path:url(#aj);}.by{clip-path:url(#ai);}.c`{clip-path:url(#ad);}.ca{clip-path:url(#a`);}.ao,.ap{stroke-width:.25px;}</style><clipPath id="b"><polygon points="87.5 86.5 104.48 85.72 104.48 87.28 87.5 86.5" style="fill:none;"/></clipPath><clipPath id="c"><polygon points="87.48 86.67 104.34 88.85 104.07 90.4 87.48 86.67" style="fill:none;"/></clipPath><clipPath id="d"><polygon points="87.43 86.84 103.66 91.91 103.13 93.39 87.43 86.84" style="fill:none;"/></clipPath><clipPath id="e"><polygon points="87.36 87 102.46 94.81 101.68 96.17 87.36 87" style="fill:none;"/></clipPath><clipPath id="f"><polygon points="87.26 87.14 100.78 97.46 99.77 98.66 87.26 87.14" style="fill:none;"/></clipPath><clipPath id="g"><polygon points="87.14 87.27 98.66 99.77 97.45 100.78 87.14 87.27" style="fill:none;"/></clipPath><clipPath id="h"><polygon points="87 87.37 96.17 101.68 94.81 102.47 87 87.37" style="fill:none;"/></clipPath><clipPath id="i"><polygon points="86.84 87.44 93.38 103.13 91.91 103.67 86.84 87.44" style="fill:none;"/></clipPath><clipPath id="j"><polygon points="86.67 87.48 90.39 104.07 88.84 104.35 86.67 87.48" style="fill:none;"/></clipPath><clipPath id="k"><polygon points="86.5 87.5 87.28 104.48 85.71 104.48 86.5 87.5" style="fill:none;"/></clipPath><clipPath id="l"><polygon points="86.32 87.48 84.15 104.35 82.6 104.07 86.32 87.48" style="fill:none;"/></clipPath><clipPath id="m"><polygon points="86.15 87.44 81.08 103.67 79.61 103.13 86.15 87.44" style="fill:none;"/></clipPath><clipPath id="n"><polygon points="86 87.37 78.18 102.47 76.82 101.68 86 87.37" style="fill:none;"/></clipPath><clipPath id="o"><polygon points="85.85 87.27 75.54 100.78 74.33 99.77 85.85 87.27" style="fill:none;"/></clipPath><clipPath id="p"><polygon points="85.73 87.14 73.22 98.66 72.21 97.46 85.73 87.14" style="fill:none;"/></clipPath><clipPath id="q"><polygon points="85.63 87 71.31 96.17 70.53 94.81 85.63 87" style="fill:none;"/></clipPath><clipPath id="r"><polygon points="85.56 86.84 69.87 93.39 69.33 91.91 85.56 86.84" style="fill:none;"/></clipPath><clipPath id="s"><polygon points="85.51 86.67 68.92 90.4 68.65 88.85 85.51 86.67" style="fill:none;"/></clipPath><clipPath id="t"><polygon points="85.5 86.5 68.51 87.28 68.51 85.72 85.5 86.5" style="fill:none;"/></clipPath><clipPath id="u"><polygon points="85.51 86.33 68.65 84.15 68.92 82.6 85.51 86.33" style="fill:none;"/></clipPath><clipPath id="v"><polygon points="85.56 86.16 69.33 81.09 69.87 79.61 85.56 86.16" style="fill:none;"/></clipPath><clipPath id="w"><polygon points="85.63 86 70.53 78.19 71.31 76.83 85.63 86" style="fill:none;"/></clipPath><clipPath id="x"><polygon points="85.73 85.86 72.21 75.54 73.22 74.34 85.73 85.86" style="fill:none;"/></clipPath><clipPath id="y"><polygon points="85.85 85.73 74.33 73.23 75.54 72.22 85.85 85.73" style="fill:none;"/></clipPath><clipPath id="a`"><polygon points="86 85.63 76.82 71.32 78.18 70.53 86 85.63" style="fill:none;"/></clipPath><clipPath id="aa"><polygon points="86.15 85.56 79.61 69.87 81.08 69.33 86.15 85.56" style="fill:none;"/></clipPath><clipPath id="ab"><polygon points="86.32 85.52 82.6 68.93 84.15 68.65 86.32 85.52" style="fill:none;"/></clipPath><clipPath id="ac"><polygon points="86.5 85.5 85.71 68.52 87.28 68.52 86.5 85.5" style="fill:none;"/></clipPath><clipPath id="ad"><polygon points="86.67 85.52 88.84 68.65 90.39 68.93 86.67 85.52" style="fill:none;"/></clipPath><clipPath id="ae"><polygon points="86.84 85.56 91.91 69.33 93.38 69.87 86.84 85.56" style="fill:none;"/></clipPath><clipPath id="af"><polygon points="87 85.63 94.81 70.53 96.17 71.32 87 85.63" style="fill:none;"/></clipPath><clipPath id="ag"><polygon points="87.14 85.73 97.45 72.22 98.66 73.23 87.14 85.73" style="fill:none;"/></clipPath><clipPath id="ah"><polygon points="87.26 85.86 99.77 74.34 100.78 75.54 87.26 85.86" style="fill:none;"/></clipPath><clipPath id="ai"><polygon points="87.36 86 101.68 76.83 102.46 78.19 87.36 86" style="fill:none;"/></clipPath><clipPath id="aj"><polygon points="87.43 86.16 103.12 79.61 103.66 81.09 87.43 86.16" style="fill:none;"/></clipPath><clipPath id="ak"><polygon points="87.48 86.33 104.07 82.6 104.34 84.15 87.48 86.33" style="fill:none;"/></clipPath></defs><path d="M67,73v27m6-33h27" style="fill:none; stroke:#fff; stroke-miterlimit:10; stroke-width:1.25px;"/><path d="M67,73v27m6-33h27" style="fill:none; stroke:#000; stroke-miterlimit:10; stroke-width:.25px;"/><circle cx="49" cy="86.5" r="6" style="fill:none; stroke:#fff; stroke-miterlimit:10; stroke-width:1.25px;"/><line x1="40" y1="86.5" x2="58" y2="86.5" style="fill:none; stroke:#fff; stroke-miterlimit:10; stroke-width:1.25px;"/><line x1="49" y1="77.5" x2="49" y2="95.5" style="fill:none; stroke:#fff; stroke-miterlimit:10; stroke-width:1.25px;"/><circle cx="49" cy="86.5" r="3" style="fill:none; stroke:#fff; stroke-miterlimit:10; stroke-width:1.25px;"/><circle cx="49" cy="86.5" r="6" style="fill:none; stroke:#000; stroke-miterlimit:10; stroke-width:.25px;"/><line x1="40" y1="86.5" x2="58" y2="86.5" style="fill:none; stroke:#000; stroke-miterlimit:10; stroke-width:.25px;"/><line x1="49" y1="77.5" x2="49" y2="95.5" style="fill:none; stroke:#000; stroke-miterlimit:10; stroke-width:.25px;"/><path d="M52,86.5c0,1.66-1.34,3-3,3s-3-1.34-3-3,1.34-3,3-3,3,1.34,3,3"/><line x1="46" y1="86.5" x2="52" y2="86.5" style="fill:none; stroke:#fff; stroke-miterlimit:10; stroke-width:.25px;"/><line x1="49" y1="83.5" x2="49" y2="89.5" style="fill:none; stroke:#fff; stroke-miterlimit:10; stroke-width:.25px;"/><circle cx="86.5" cy="49" r="6" style="fill:none; stroke:#fff; stroke-miterlimit:10; stroke-width:1.25px;"/><line x1="77.5" y1="49" x2="95.5" y2="49" style="fill:none; stroke:#fff; stroke-miterlimit:10; stroke-width:1.25px;"/><line x1="86.5" y1="40" x2="86.5" y2="58" style="fill:none; stroke:#fff; stroke-miterlimit:10; stroke-width:1.25px;"/><circle cx="86.5" cy="49" r="3" style="fill:none; stroke:#fff; stroke-miterlimit:10; stroke-width:1.25px;"/><circle cx="86.5" cy="49" r="6" style="fill:none; stroke:#000; stroke-miterlimit:10; stroke-width:.25px;"/><line x1="77.5" y1="49" x2="95.5" y2="49" style="fill:none; stroke:#000; stroke-miterlimit:10; stroke-width:.25px;"/><line x1="86.5" y1="40" x2="86.5" y2="58" style="fill:none; stroke:#000; stroke-miterlimit:10; stroke-width:.25px;"/><path d="M89.5,49c0,1.66-1.34,3-3,3s-3-1.34-3-3,1.34-3,3-3,3,1.34,3,3"/><line x1="83.5" y1="49" x2="89.5" y2="49" style="fill:none; stroke:#fff; stroke-miterlimit:10; stroke-width:.25px;"/><line x1="86.5" y1="46" x2="86.5" y2="52" style="fill:none; stroke:#fff; stroke-miterlimit:10; stroke-width:.25px;"/><path d="M95.5,86.5c0,4.97-4.03,9-9,9s-9-4.03-9-9,4.03-9,9-9,9,4.03,9,9" style="fill:#fff;"/><circle cx="86.5" cy="86.5" r="9" style="fill:none; stroke:#000; stroke-miterlimit:10; stroke-width:.3px;"/><g style="clip-path:url(#b);"><path d="M95.5,86.5c0,4.97-4.03,9-9,9s-9-4.03-9-9,4.03-9,9-9,9,4.03,9,9"/></g><g style="clip-path:url(#c);"><path d="M95.36,88.06c-.86,4.89-5.53,8.16-10.43,7.3-4.9-.86-8.16-5.53-7.3-10.43,.86-4.89,5.53-8.16,10.43-7.3,4.9,.86,8.16,5.53,7.3,10.43"/></g><g style="clip-path:url(#d);"><path d="M94.95,89.58c-1.7,4.67-6.87,7.08-11.54,5.38-4.67-1.7-7.08-6.86-5.38-11.53,1.7-4.67,6.86-7.08,11.54-5.38,4.67,1.7,7.08,6.86,5.38,11.53"/></g><g style="clip-path:url(#e);"><path d="M94.29,91c-2.49,4.3-7.99,5.78-12.29,3.29-4.31-2.49-5.78-7.99-3.29-12.29,2.48-4.31,7.99-5.78,12.29-3.29,4.3,2.48,5.78,7.99,3.29,12.29"/></g><g style="clip-path:url(#f);"><path d="M93.39,92.29c-3.2,3.81-8.87,4.3-12.68,1.11-3.81-3.19-4.3-8.87-1.11-12.68,3.19-3.81,8.87-4.31,12.68-1.11,3.81,3.19,4.3,8.87,1.11,12.68"/></g><g style="clip-path:url(#g);"><path d="M92.28,93.39c-3.81,3.19-9.48,2.7-12.68-1.11-3.19-3.81-2.7-9.48,1.11-12.68s9.48-2.7,12.68,1.11c3.2,3.81,2.7,9.48-1.11,12.68"/></g><g style="clip-path:url(#h);"><path d="M91,94.29c-4.31,2.48-9.81,1.01-12.29-3.29-2.49-4.31-1.01-9.81,3.29-12.29,4.3-2.49,9.81-1.01,12.29,3.29,2.49,4.3,1.01,9.81-3.29,12.29"/></g><g style="clip-path:url(#i);"><path d="M89.57,94.96c-4.67,1.7-9.84-.71-11.54-5.38-1.7-4.67,.71-9.84,5.38-11.53,4.67-1.7,9.83,.71,11.53,5.38,1.7,4.67-.71,9.83-5.38,11.53"/></g><g style="clip-path:url(#j);"><path d="M88.06,95.36c-4.9,.86-9.56-2.4-10.43-7.3-.86-4.89,2.4-9.56,7.3-10.43,4.9-.86,9.56,2.41,10.43,7.3,.86,4.89-2.41,9.56-7.3,10.43"/></g><g style="clip-path:url(#k);"><path d="M86.5,95.5c-4.97,0-9-4.03-9-9s4.03-9,9-9,9,4.03,9,9-4.03,9-9,9"/></g><g style="clip-path:url(#l);"><path d="M84.93,95.36c-4.9-.86-8.16-5.53-7.3-10.43,.86-4.89,5.53-8.16,10.43-7.3,4.9,.86,8.16,5.53,7.3,10.43-.86,4.89-5.53,8.16-10.43,7.3"/></g><g style="clip-path:url(#m);"><path d="M83.42,94.96c-4.67-1.7-7.08-6.86-5.38-11.53,1.7-4.67,6.86-7.08,11.53-5.38,4.67,1.7,7.08,6.86,5.38,11.53-1.7,4.67-6.86,7.08-11.53,5.38"/></g><g style="clip-path:url(#n);"><path d="M82,94.29c-4.31-2.48-5.78-7.99-3.29-12.29,2.48-4.31,7.99-5.78,12.29-3.29,4.3,2.49,5.78,7.99,3.29,12.29-2.48,4.3-7.99,5.78-12.29,3.29"/></g><g style="clip-path:url(#o);"><path d="M80.71,93.39c-3.81-3.19-4.3-8.87-1.11-12.68,3.19-3.81,8.87-4.3,12.68-1.11,3.81,3.19,4.3,8.87,1.11,12.68-3.2,3.81-8.87,4.3-12.68,1.11"/></g><g style="clip-path:url(#p);"><path d="M79.6,92.29c-3.2-3.81-2.7-9.48,1.11-12.68,3.81-3.19,9.49-2.7,12.68,1.11,3.19,3.81,2.7,9.48-1.11,12.68-3.81,3.19-9.48,2.7-12.68-1.11"/></g><g style="clip-path:url(#q);"><path d="M78.7,91c-2.49-4.3-1.01-9.81,3.29-12.29,4.31-2.49,9.81-1.01,12.29,3.29,2.49,4.31,1.01,9.81-3.29,12.29-4.3,2.49-9.81,1.01-12.29-3.29"/></g><g style="clip-path:url(#r);"><path d="M78.04,89.58c-1.7-4.67,.71-9.84,5.38-11.53,4.67-1.7,9.84,.71,11.54,5.38,1.7,4.67-.71,9.83-5.38,11.53-4.67,1.7-9.83-.71-11.53-5.38"/></g><g style="clip-path:url(#s);"><path d="M77.63,88.06c-.86-4.89,2.4-9.56,7.3-10.43,4.9-.86,9.56,2.41,10.43,7.3,.86,4.89-2.41,9.56-7.3,10.43-4.9,.86-9.56-2.41-10.43-7.3"/></g><g style="clip-path:url(#t);"><path d="M77.5,86.5c0-4.97,4.03-9,9-9s9,4.03,9,9-4.03,9-9,9-9-4.03-9-9"/></g><g style="clip-path:url(#u);"><path d="M77.63,84.94c.86-4.89,5.53-8.16,10.43-7.3,4.9,.86,8.16,5.53,7.3,10.43-.86,4.89-5.53,8.16-10.43,7.3s-8.16-5.53-7.3-10.43"/></g><g style="clip-path:url(#v);"><path d="M78.04,83.42c1.7-4.67,6.86-7.08,11.53-5.38,4.67,1.7,7.08,6.86,5.38,11.53-1.7,4.67-6.86,7.08-11.54,5.38-4.67-1.7-7.08-6.86-5.38-11.53"/></g><g style="clip-path:url(#w);"><path d="M78.7,82c2.48-4.3,7.99-5.78,12.29-3.29,4.31,2.48,5.78,7.99,3.29,12.29-2.48,4.31-7.99,5.78-12.29,3.29-4.3-2.48-5.78-7.99-3.29-12.29"/></g><g style="clip-path:url(#x);"><path d="M79.6,80.71c3.19-3.81,8.87-4.3,12.68-1.11,3.81,3.19,4.3,8.87,1.11,12.68-3.19,3.81-8.87,4.31-12.68,1.11-3.81-3.19-4.3-8.87-1.11-12.68"/></g><g style="clip-path:url(#y);"><path d="M80.71,79.61c3.81-3.19,9.48-2.7,12.68,1.11,3.19,3.81,2.7,9.48-1.11,12.68-3.81,3.19-9.48,2.7-12.68-1.11-3.2-3.81-2.7-9.48,1.11-12.68"/></g><g style="clip-path:url(#a`);"><path d="M82,78.71c4.3-2.48,9.81-1.01,12.29,3.29,2.49,4.3,1.01,9.81-3.29,12.29-4.31,2.49-9.81,1.01-12.29-3.29-2.49-4.3-1.01-9.81,3.29-12.29"/></g><g style="clip-path:url(#aa);"><path d="M83.42,78.04c4.67-1.7,9.83,.71,11.53,5.38,1.7,4.67-.71,9.83-5.38,11.53-4.67,1.7-9.83-.71-11.53-5.38-1.7-4.67,.71-9.83,5.38-11.53"/></g><g style="clip-path:url(#ab);"><path d="M84.93,77.64c4.89-.86,9.56,2.41,10.43,7.3,.86,4.89-2.4,9.56-7.3,10.43-4.9,.86-9.56-2.41-10.43-7.3-.86-4.89,2.41-9.56,7.3-10.43"/></g><g style="clip-path:url(#ac);"><path d="M86.5,77.5c4.97,0,9,4.03,9,9s-4.03,9-9,9-9-4.03-9-9,4.03-9,9-9"/></g><g style="clip-path:url(#ad);"><path d="M88.06,77.64c4.89,.86,8.16,5.53,7.3,10.43-.86,4.9-5.53,8.16-10.43,7.3-4.9-.86-8.16-5.53-7.3-10.43,.86-4.89,5.53-8.16,10.43-7.3"/></g><g style="clip-path:url(#ae);"><path d="M89.57,78.04c4.67,1.7,7.08,6.86,5.38,11.53-1.7,4.67-6.86,7.08-11.53,5.38-4.67-1.7-7.08-6.86-5.38-11.53,1.7-4.67,6.86-7.08,11.54-5.38"/></g><g style="clip-path:url(#af);"><path d="M91,78.71c4.3,2.49,5.78,7.99,3.29,12.29-2.48,4.31-7.99,5.78-12.29,3.29-4.31-2.49-5.78-7.99-3.29-12.29,2.48-4.3,7.99-5.78,12.29-3.29"/></g><g style="clip-path:url(#ag);"><path d="M92.28,79.61c3.81,3.2,4.3,8.87,1.11,12.68-3.19,3.81-8.87,4.3-12.68,1.11s-4.3-8.87-1.11-12.68c3.2-3.81,8.87-4.3,12.68-1.11"/></g><g style="clip-path:url(#ah);"><path d="M93.39,80.71c3.19,3.81,2.7,9.48-1.11,12.68-3.81,3.19-9.49,2.7-12.68-1.11-3.19-3.81-2.7-9.48,1.11-12.68,3.81-3.19,9.48-2.7,12.68,1.11"/></g><g style="clip-path:url(#ai);"><path d="M94.29,82c2.48,4.31,1.01,9.81-3.29,12.29-4.31,2.49-9.81,1.01-12.29-3.29-2.49-4.3-1.01-9.81,3.29-12.29,4.3-2.49,9.81-1.01,12.29,3.29"/></g><g style="clip-path:url(#aj);"><path d="M94.95,83.42c1.7,4.67-.71,9.84-5.38,11.53s-9.84-.71-11.54-5.38c-1.7-4.67,.71-9.83,5.38-11.53,4.67-1.7,9.83,.71,11.54,5.38"/></g><g style="clip-path:url(#ak);"><path d="M95.36,84.94c.86,4.9-2.41,9.56-7.3,10.43-4.9,.86-9.56-2.4-10.43-7.3-.86-4.9,2.41-9.56,7.3-10.43,4.9-.86,9.56,2.41,10.43,7.3"/></g></svg>